<?xml version="1.0" standalone="no"?>
<!DOCTYPE svg PUBLIC "-//W3C//DTD SVG 20010904//EN"
 "http://www.w3.org/TR/2001/REC-SVG-20010904/DTD/svg10.dtd">
<svg version="1.0" xmlns="http://www.w3.org/2000/svg"
 width="2768.000000pt" height="2768.000000pt" viewBox="0 0 2768.000000 2768.000000"
 preserveAspectRatio="xMidYMid meet">
<metadata>
Created by potrace 1.14, written by Peter Selinger 2001-2017
</metadata>
<g transform="translate(0.000000,2768.000000) scale(0.100000,-0.100000)"
fill="#000000" stroke="none">
<path d="M14056 22338 c-44 -10 -111 -36 -150 -57 -39 -22 -73 -39 -76 -38 -3
1 -19 -8 -37 -21 -17 -12 -33 -22 -36 -22 -3 0 -34 -13 -69 -29 -85 -38 -205
-83 -263 -97 -5 -2 -35 -10 -65 -18 -104 -27 -231 -38 -395 -33 -149 4 -240
11 -292 21 -11 3 -43 8 -70 12 -26 3 -55 8 -64 9 -8 2 -37 -1 -65 -6 -27 -5
-65 -11 -85 -14 -59 -7 -131 -38 -219 -94 -30 -19 -57 -37 -60 -40 -10 -12
-139 -81 -152 -81 -4 0 -33 -12 -64 -26 -81 -37 -284 -92 -362 -99 -65 -5 -89
-9 -142 -21 -40 -9 -43 -10 -84 -27 -21 -9 -40 -17 -43 -17 -22 0 -150 -100
-198 -155 -112 -127 -201 -214 -314 -305 -24 -19 -48 -39 -55 -45 -34 -30
-224 -142 -256 -150 -3 -1 -14 -5 -25 -10 -101 -40 -261 -93 -305 -101 -14 -3
-43 -10 -65 -16 -48 -12 -69 -17 -115 -24 -56 -8 -71 -14 -145 -51 -70 -36
-133 -80 -170 -119 -52 -56 -75 -84 -68 -84 5 0 3 -4 -2 -8 -6 -4 -23 -25 -39
-47 -41 -56 -202 -211 -256 -248 -25 -16 -50 -35 -55 -41 -20 -22 -73 -55
-156 -96 -142 -72 -211 -123 -269 -200 -14 -18 -30 -38 -36 -45 -18 -17 -39
-62 -78 -164 -34 -88 -97 -220 -143 -301 -35 -61 -87 -145 -93 -150 -3 -3 -17
-21 -30 -40 -36 -52 -106 -127 -194 -205 -43 -38 -129 -107 -171 -136 -27 -19
-51 -37 -53 -41 -2 -5 -8 -8 -12 -8 -5 0 -35 -18 -66 -40 -32 -22 -61 -40 -66
-40 -36 0 -165 -133 -216 -224 -24 -41 -70 -169 -79 -216 -5 -28 -51 -138 -66
-158 -6 -7 -20 -34 -32 -61 -39 -83 -150 -239 -224 -315 -39 -41 -71 -78 -71
-84 0 -6 -4 -12 -9 -14 -17 -7 -61 -88 -89 -169 -24 -68 -30 -103 -32 -184 -3
-142 -13 -258 -31 -357 -5 -32 -12 -70 -15 -85 -10 -58 -55 -219 -69 -247 -8
-16 -15 -33 -15 -38 0 -6 -10 -24 -22 -41 -13 -18 -22 -34 -20 -37 3 -5 -29
-71 -38 -80 -3 -3 -24 -35 -45 -72 -38 -65 -63 -86 -85 -73 -6 4 -7 11 -4 17
4 6 -1 8 -16 3 -12 -4 -20 -3 -17 2 3 4 -6 13 -19 20 -13 6 -22 7 -19 2 3 -4
-7 -2 -21 6 -15 8 -31 12 -36 9 -4 -3 -8 3 -9 13 0 16 -1 16 -9 -2 -8 -18 -9
-18 -9 -2 -1 10 -5 15 -11 12 -5 -3 -10 0 -10 8 0 18 -27 30 -36 16 -3 -6 -12
-2 -21 10 -11 16 -18 19 -33 11 -13 -7 -19 -6 -23 4 -4 9 -14 12 -28 9 -17 -5
-20 -3 -14 7 6 10 4 12 -7 7 -9 -3 -25 1 -37 9 -12 8 -26 12 -31 9 -6 -3 -10
-1 -10 6 0 6 -8 9 -20 6 -11 -3 -20 0 -20 6 0 6 -3 7 -6 4 -4 -3 -16 -2 -27 4
-14 8 -18 8 -13 0 5 -7 1 -9 -8 -5 -9 3 -13 10 -10 15 7 13 -19 7 -28 -6 -4
-6 -8 -2 -8 8 0 9 -5 17 -11 17 -5 0 -7 -5 -3 -11 5 -8 1 -8 -13 0 -11 6 -23
7 -27 4 -3 -3 -6 1 -6 10 0 9 -4 19 -10 22 -5 3 -7 0 -4 -9 5 -14 -18 -17 -32
-4 -3 4 -13 4 -22 1 -8 -4 -13 -2 -9 3 3 6 -3 11 -14 11 -12 1 -17 -3 -13 -9
4 -7 2 -8 -4 -4 -7 4 -12 15 -13 24 0 11 -3 12 -6 5 -2 -7 -18 -13 -34 -13
-19 0 -28 4 -24 11 5 7 -3 9 -25 6 -24 -4 -30 -2 -26 9 4 11 0 11 -19 -2 -24
-15 -25 -15 -19 1 6 15 4 16 -13 7 -14 -8 -23 -8 -31 0 -7 7 -12 8 -12 3 0 -5
-7 0 -16 11 -8 10 -12 13 -9 6 5 -10 -3 -12 -34 -8 -23 3 -46 8 -53 12 -6 4
-8 3 -5 -3 3 -5 0 -10 -8 -10 -8 0 -12 4 -9 9 3 4 -7 8 -21 8 -18 0 -24 -4
-19 -12 5 -9 3 -9 -9 1 -9 7 -14 18 -10 24 3 6 1 7 -6 3 -6 -4 -9 -12 -6 -17
3 -5 -1 -6 -9 -3 -9 3 -16 10 -16 16 0 5 -5 6 -10 3 -6 -4 -8 -12 -4 -18 3 -7
-2 -3 -10 7 -9 11 -16 15 -16 10 0 -5 -9 -10 -20 -11 -13 -1 -18 2 -13 10 4 7
-2 5 -12 -3 -15 -12 -17 -12 -10 -1 6 11 4 13 -8 8 -9 -3 -18 -1 -21 6 -2 7
-5 3 -5 -7 -1 -20 -1 -20 -16 0 -8 10 -15 14 -15 7 0 -15 -41 -8 -52 9 -5 9
-8 5 -8 -12 -1 -22 -2 -23 -11 -7 -7 11 -17 16 -29 12 -10 -3 -21 -1 -25 5 -5
8 -11 8 -21 -1 -11 -9 -18 -8 -31 2 -11 10 -14 10 -9 2 4 -7 3 -13 -3 -13 -5
0 -11 5 -13 11 -3 9 -9 9 -25 0 -14 -7 -24 -8 -28 -1 -3 5 -11 10 -16 10 -6 0
-8 -3 -6 -7 3 -5 -12 -8 -34 -9 -25 0 -36 3 -32 10 4 6 -1 5 -11 -3 -15 -13
-19 -13 -26 0 -8 11 -13 12 -29 2 -14 -9 -22 -9 -27 -2 -4 8 -9 7 -15 -2 -7
-12 -9 -12 -9 0 0 9 -4 10 -12 4 -7 -5 -40 -10 -73 -12 -33 -2 -64 -6 -70 -9
-5 -3 -4 1 2 9 10 13 10 15 -5 14 -9 0 -22 -3 -27 -6 -6 -3 -31 -5 -57 -5 -31
1 -50 -4 -53 -12 -3 -8 -10 -10 -17 -5 -17 10 -38 13 -38 4 0 -4 -9 -7 -20 -8
-13 -1 -18 2 -13 10 4 7 1 7 -10 -1 -18 -15 -112 -20 -124 -7 -5 4 -2 5 6 0
10 -6 12 -4 7 4 -6 8 -12 9 -20 2 -9 -7 -17 -7 -26 2 -10 9 -11 9 -6 0 6 -11
-23 -17 -60 -12 -4 0 -11 -5 -15 -13 -7 -10 -9 -10 -9 0 0 9 -6 10 -17 5 -10
-5 -35 -8 -55 -8 -21 0 -38 -4 -38 -9 0 -5 -3 -6 -6 -3 -4 3 -16 2 -27 -4 -14
-8 -18 -8 -13 0 5 8 0 8 -18 1 -17 -6 -26 -6 -30 3 -3 9 -5 9 -5 0 -1 -8 -15
-13 -37 -13 -19 0 -33 -4 -30 -8 7 -12 -38 -9 -46 3 -5 6 -8 5 -8 -3 0 -7 -4
-10 -10 -7 -5 3 -10 1 -10 -5 0 -8 -6 -8 -20 0 -11 6 -20 7 -19 3 3 -20 -2
-27 -11 -13 -8 13 -10 12 -10 -3 0 -15 -3 -16 -21 -6 -14 7 -19 7 -15 0 4 -5
-3 -15 -15 -22 -20 -10 -21 -9 -15 7 5 17 5 17 -7 2 -10 -12 -17 -14 -31 -6
-13 7 -17 7 -12 0 4 -6 -1 -11 -11 -12 -67 -2 -93 -6 -93 -13 0 -5 -5 -5 -10
-2 -6 4 -17 1 -25 -5 -9 -8 -15 -8 -15 -2 0 5 -9 8 -20 5 -11 -3 -20 -10 -20
-17 0 -6 -5 -4 -10 4 -8 13 -10 13 -10 -2 0 -9 -5 -20 -12 -24 -6 -4 -8 -3 -4
4 3 6 2 13 -4 17 -5 3 -10 -1 -10 -11 0 -14 -2 -15 -17 -3 -9 8 -14 9 -10 3
10 -17 -34 -26 -52 -11 -8 7 -12 7 -9 2 4 -6 -9 -15 -28 -21 -31 -10 -34 -9
-30 5 4 11 1 9 -9 -4 -9 -11 -18 -19 -20 -17 -12 6 -26 1 -20 -8 3 -6 -1 -7
-9 -4 -9 3 -16 1 -16 -6 0 -6 -5 -8 -10 -5 -6 4 -17 1 -25 -5 -12 -10 -15 -9
-15 6 -1 18 -1 18 -11 1 -6 -9 -14 -15 -20 -12 -5 4 -9 1 -9 -6 0 -8 -4 -8
-15 1 -12 10 -16 9 -21 -4 -3 -9 -10 -16 -16 -16 -5 0 -6 4 -3 10 3 5 0 7 -9
4 -8 -3 -12 -12 -9 -21 5 -13 3 -14 -17 -3 -18 10 -21 9 -15 -1 6 -9 2 -11
-13 -7 -12 3 -23 1 -24 -4 -2 -6 -16 -10 -31 -10 -15 0 -30 -5 -34 -11 -4 -6
-1 -7 8 -2 12 7 12 5 1 -6 -11 -12 -14 -12 -22 1 -8 13 -10 13 -10 -1 0 -11
-9 -15 -30 -14 -16 1 -27 -2 -25 -6 3 -4 -2 -10 -11 -13 -8 -3 -12 -2 -9 3 3
5 1 13 -5 16 -6 4 -10 3 -9 -2 5 -27 -1 -35 -16 -23 -13 11 -14 10 -8 -5 5
-14 3 -17 -10 -12 -10 4 -17 1 -17 -6 0 -8 -4 -6 -10 3 -6 9 -10 11 -10 3 0
-7 -7 -10 -15 -6 -10 3 -15 0 -13 -8 2 -8 -4 -13 -14 -13 -10 1 -18 -1 -18 -5
0 -4 -6 -8 -12 -8 -26 -1 -43 -9 -55 -25 -8 -10 -21 -14 -33 -11 -13 3 -20 0
-20 -8 0 -11 -2 -11 -10 1 -7 12 -10 12 -10 1 0 -8 -6 -11 -16 -7 -15 6 -15 4
-3 -10 13 -16 12 -16 -9 -5 -19 10 -23 9 -28 -4 -4 -9 -13 -14 -21 -11 -7 3
-16 -1 -19 -9 -5 -13 -53 -34 -89 -39 -8 -1 -18 -6 -22 -11 -4 -4 -2 -5 6 0 9
5 12 4 7 -3 -4 -7 -16 -12 -26 -12 -10 0 -21 -6 -23 -12 -4 -10 -6 -9 -6 1 -1
10 -7 7 -20 -7 -10 -12 -21 -19 -25 -15 -3 3 -6 1 -6 -7 0 -10 -4 -10 -17 1
-9 8 -14 10 -11 4 3 -5 -4 -19 -15 -30 -11 -11 -17 -14 -13 -8 10 18 -25 4
-42 -16 -8 -9 -11 -10 -7 -4 4 8 1 11 -9 7 -8 -3 -13 -11 -10 -18 3 -9 -5 -12
-25 -11 -26 2 -29 0 -18 -14 9 -12 9 -13 0 -7 -8 4 -13 2 -14 -6 0 -7 -4 -4
-9 7 -8 18 -9 19 -9 1 -1 -13 -6 -16 -18 -12 -10 4 -14 4 -10 0 9 -10 -30 -37
-43 -29 -6 3 -10 1 -10 -5 0 -6 -5 -8 -10 -5 -6 4 -9 1 -8 -7 2 -7 -3 -12 -11
-10 -9 2 -11 -3 -7 -15 6 -14 4 -15 -5 -6 -13 13 -42 6 -33 -8 3 -5 -2 -9 -10
-9 -9 0 -19 0 -23 0 -5 -1 -23 -15 -42 -33 -19 -18 -31 -26 -27 -19 4 6 2 12
-3 12 -6 0 -11 -9 -11 -19 0 -15 -5 -18 -22 -13 -13 3 -19 1 -15 -5 6 -10 -40
-38 -56 -34 -5 1 -6 -3 -2 -9 3 -5 1 -10 -5 -10 -6 0 -8 -5 -4 -12 6 -10 4
-10 -8 0 -13 10 -17 10 -22 -4 -3 -9 -13 -14 -21 -10 -8 3 -14 0 -12 -7 1 -7
-6 -11 -16 -10 -12 0 -16 -4 -13 -12 3 -10 0 -12 -11 -8 -10 4 -14 2 -10 -4 4
-6 0 -14 -9 -17 -8 -3 -13 -2 -10 2 2 4 -4 8 -14 8 -14 0 -16 -3 -8 -13 10
-12 4 -17 -14 -14 -5 0 -8 -4 -8 -10 0 -6 -7 -8 -16 -5 -10 4 -13 2 -8 -6 5
-7 2 -9 -9 -5 -11 4 -14 2 -10 -9 3 -8 -1 -14 -10 -14 -8 0 -17 -5 -19 -10 -2
-6 -13 -12 -26 -13 -24 -1 -29 -12 -9 -21 6 -3 1 -3 -12 0 -19 5 -23 3 -18
-10 5 -13 3 -15 -12 -6 -15 7 -18 6 -17 -8 1 -12 -6 -17 -22 -16 -19 1 -21 -1
-10 -15 7 -9 8 -13 4 -9 -5 4 -15 0 -23 -10 -9 -10 -11 -11 -7 -2 7 13 5 13
-9 2 -9 -8 -22 -11 -29 -7 -7 4 -5 0 5 -8 17 -14 16 -15 -9 -21 -18 -5 -24
-11 -20 -23 5 -13 4 -14 -9 -3 -12 10 -15 10 -15 -4 0 -10 -4 -14 -10 -11 -5
3 -10 1 -10 -4 0 -6 -5 -11 -11 -11 -5 0 -7 5 -3 12 4 7 3 8 -4 4 -7 -4 -12
-13 -12 -21 0 -8 -5 -17 -12 -21 -7 -5 -8 -3 -3 5 6 10 3 11 -14 2 -11 -7 -21
-14 -21 -17 0 -3 5 -2 12 2 7 4 8 3 4 -5 -4 -6 -13 -10 -20 -9 -7 2 -25 -10
-41 -27 -15 -16 -22 -22 -15 -12 8 11 9 17 2 17 -6 0 -14 -9 -17 -20 -6 -18
-17 -24 -37 -21 -4 0 -4 -7 -1 -16 4 -10 2 -14 -4 -10 -6 4 -14 0 -17 -9 -3
-8 -10 -13 -15 -9 -6 3 -14 -2 -19 -11 -6 -11 -16 -15 -27 -10 -15 5 -16 4 -5
-9 11 -14 7 -19 -13 -16 -4 0 -7 -7 -7 -17 0 -14 -2 -15 -10 -2 -7 12 -10 12
-10 1 0 -7 -6 -11 -14 -8 -11 4 -13 1 -9 -10 5 -13 2 -15 -12 -10 -15 6 -16 5
-5 -8 7 -9 9 -15 4 -14 -22 4 -34 -2 -35 -18 0 -11 -3 -13 -6 -6 -6 16 -33 -8
-33 -29 0 -10 -3 -9 -10 2 -9 13 -10 13 -11 0 -1 -8 -1 -19 0 -24 1 -5 -6 -3
-15 5 -10 8 -15 9 -11 2 9 -14 -27 -28 -45 -17 -10 5 -10 4 -1 -6 17 -18 -16
-51 -36 -36 -12 9 -13 8 -7 -2 10 -17 -13 -64 -27 -55 -5 3 -4 -4 2 -16 11
-21 5 -27 -22 -22 -5 1 -6 -3 -2 -9 3 -6 10 -8 14 -6 4 3 13 -4 20 -16 7 -11
8 -17 2 -13 -17 10 -13 -13 7 -34 28 -32 39 -46 45 -61 4 -12 6 -11 6 3 1 9 6
17 12 17 6 0 9 -7 6 -14 -4 -11 -1 -13 10 -9 9 4 14 2 10 -3 -3 -6 4 -11 16
-11 17 -2 19 0 7 7 -13 8 -13 11 -1 22 11 11 13 11 6 -1 -6 -11 -1 -13 25 -9
28 4 31 3 16 -7 -15 -12 -14 -13 8 -11 13 0 22 4 20 8 -2 4 1 10 7 14 7 4 9 3
5 -4 -10 -16 13 -25 29 -12 12 10 15 10 15 -1 0 -11 2 -11 10 1 8 12 10 12 11
-5 0 -16 2 -17 7 -5 8 19 42 20 60 3 15 -15 45 -6 35 11 -4 6 0 6 9 -2 10 -8
19 -9 22 -3 8 13 62 -3 58 -18 -1 -7 2 -10 7 -6 6 3 7 13 4 22 -4 11 -3 14 5
9 7 -4 12 -15 13 -24 0 -14 2 -13 9 3 5 11 9 15 9 9 1 -8 14 -9 40 -4 30 5 44
3 56 -9 15 -15 16 -15 10 1 -5 13 -2 15 15 11 17 -4 19 -8 8 -15 -15 -10 25
-4 56 8 15 6 17 4 11 -7 -6 -11 -5 -12 6 -1 18 16 32 15 26 -2 -4 -10 -1 -13
8 -10 8 3 11 12 8 20 -3 8 0 14 6 14 6 0 11 -4 11 -8 0 -5 21 -8 48 -8 26 1
61 -5 77 -13 28 -13 29 -13 16 3 -12 14 -12 16 3 10 9 -3 16 -14 17 -23 0 -10
4 -7 10 9 10 24 11 24 25 6 8 -11 14 -14 14 -8 0 9 5 10 18 3 11 -6 24 -6 32
-1 9 5 20 4 28 -3 16 -13 64 -18 57 -6 -8 12 22 18 34 6 8 -8 11 -7 11 3 0 13
2 13 10 0 7 -11 5 -17 -7 -21 -14 -5 -14 -7 4 -11 17 -5 21 -2 18 13 -2 10 1
21 6 25 5 3 8 2 7 -3 -3 -7 7 -15 15 -12 22 7 37 5 37 -4 0 -8 4 -7 12 1 17
17 28 15 28 -5 0 -14 2 -15 9 -4 7 11 9 11 14 0 5 -12 6 -12 6 0 1 11 4 11 16
1 12 -10 15 -10 15 0 0 10 3 10 15 0 8 -7 15 -8 15 -3 0 6 11 8 25 5 14 -2 31
1 38 7 10 8 14 7 14 -4 0 -8 -4 -12 -9 -9 -4 3 -5 -3 -1 -12 4 -11 8 -13 11
-6 2 7 13 17 24 23 12 7 18 7 14 1 -3 -5 1 -13 10 -16 8 -3 12 -2 9 4 -3 6 -1
10 4 10 6 0 11 -5 11 -11 0 -5 5 -7 10 -4 6 4 7 12 3 18 -4 7 0 6 10 -2 9 -7
17 -10 17 -5 0 5 4 5 8 -1 4 -5 17 -16 29 -22 19 -11 21 -10 17 2 -5 11 -2 13
12 8 12 -4 15 -3 10 5 -5 8 -2 10 8 6 9 -3 13 -11 10 -18 -3 -6 1 -4 8 6 13
15 16 15 38 -3 28 -21 40 -24 40 -8 0 5 -5 7 -12 3 -7 -4 -8 -3 -4 4 6 11 15
10 54 -5 30 -11 42 -12 36 -2 -3 5 -10 6 -16 3 -7 -4 -8 -2 -4 5 6 9 11 9 21
1 7 -6 17 -9 21 -8 5 2 9 -1 9 -7 0 -5 -4 -9 -8 -7 -5 1 -6 -2 -2 -8 8 -13 46
11 38 25 -3 5 0 4 8 -2 18 -17 63 -17 53 0 -4 6 2 4 14 -7 12 -10 19 -24 15
-30 -4 -6 3 -2 15 8 12 11 22 16 22 12 0 -4 7 -3 16 2 12 7 22 4 36 -10 19
-19 20 -19 35 -1 8 10 11 12 7 4 -5 -10 -3 -13 8 -8 9 3 25 -1 36 -9 15 -10
23 -11 28 -3 4 7 3 9 -3 6 -6 -4 -15 -1 -21 6 -8 9 -4 12 13 12 13 0 21 -3 18
-7 -2 -5 1 -8 7 -8 6 0 8 -4 5 -10 -3 -6 1 -7 9 -4 9 3 13 11 9 18 -5 8 -3 8
8 0 8 -5 35 -10 61 -9 46 0 47 0 30 -20 -15 -17 -15 -18 0 -7 9 7 30 17 48 22
28 8 30 7 19 -6 -10 -12 -10 -15 2 -12 8 2 13 -3 11 -10 -1 -8 2 -11 8 -7 6 3
7 12 3 18 -4 7 2 5 12 -3 11 -9 16 -10 11 -2 -4 7 -1 12 9 12 10 0 13 -5 9
-12 -6 -10 -4 -10 8 0 13 10 18 10 24 1 5 -8 3 -9 -6 -4 -8 5 -11 4 -7 -2 4
-5 27 -7 56 -3 39 5 48 4 40 -6 -7 -8 -6 -15 2 -20 7 -4 9 -3 6 3 -10 15 18
24 32 10 6 -6 11 -7 11 -1 0 5 9 10 20 10 15 0 19 -5 14 -21 -3 -12 -2 -15 3
-8 14 19 69 21 57 1 -5 -7 -3 -8 7 -2 21 13 57 16 64 4 4 -6 -1 -7 -12 -3 -19
7 -18 5 9 -15 12 -10 18 -10 24 -1 5 8 3 9 -6 4 -9 -5 -11 -4 -6 3 10 17 26
15 26 -4 0 -11 5 -14 16 -10 9 3 18 6 20 6 3 0 2 5 -2 12 -4 7 -3 8 5 4 6 -4
9 -12 6 -17 -4 -5 5 -9 19 -9 13 0 27 6 29 13 3 6 6 2 6 -11 1 -13 5 -20 11
-17 6 4 7 11 4 17 -4 7 0 7 12 1 11 -5 26 -9 34 -8 8 0 23 -8 33 -19 9 -10 17
-15 17 -10 0 6 -5 15 -10 20 -7 7 -6 11 4 11 8 0 14 -3 13 -6 -1 -3 2 -7 7 -8
5 -1 13 -7 17 -15 7 -10 9 -8 10 7 0 14 2 16 6 5 4 -8 13 -21 22 -30 13 -13
14 -13 8 2 -3 10 -2 20 3 23 6 4 10 -2 10 -12 0 -15 2 -16 10 -3 8 12 10 12
10 -5 0 -15 2 -17 9 -6 7 11 9 11 13 0 5 -12 9 -12 28 -1 16 10 20 10 14 1 -5
-9 -2 -11 12 -6 18 7 18 6 1 -7 -17 -13 -16 -14 7 -12 13 0 22 4 19 9 -2 4 1
7 6 7 6 0 11 -5 11 -11 0 -6 9 -9 20 -6 11 3 18 2 16 -2 -3 -4 -1 -13 5 -21 7
-12 9 -9 9 10 l1 25 10 -24 c9 -23 10 -24 24 -5 9 11 14 13 13 5 -2 -7 3 -16
11 -19 9 -3 11 0 6 9 -6 11 -5 11 5 2 7 -6 19 -9 26 -6 8 3 14 -1 14 -10 0
-10 8 -13 26 -9 21 4 25 2 19 -9 -7 -12 -6 -12 8 -1 13 12 18 10 29 -7 7 -12
16 -21 21 -21 4 0 6 4 3 8 -3 5 1 9 9 9 8 0 15 -5 15 -10 0 -5 7 -7 15 -3 8 3
15 1 15 -5 0 -6 5 -7 12 -3 8 5 9 2 5 -9 -3 -9 -1 -19 5 -23 6 -4 8 -3 5 3 -4
7 3 10 17 9 13 0 23 -3 21 -6 -2 -3 3 -11 11 -18 8 -7 14 -9 14 -3 0 17 60 -4
73 -26 5 -7 12 -11 18 -8 5 3 6 0 3 -8 -3 -8 0 -18 7 -23 8 -4 10 -3 5 4 -4 7
-1 12 9 12 9 0 13 -4 10 -10 -3 -5 -1 -10 5 -10 6 0 8 -5 4 -12 -5 -8 0 -7 11
2 11 9 16 10 11 3 -4 -8 -1 -13 9 -13 20 0 47 -25 37 -35 -4 -4 4 -2 17 5 15
8 21 8 17 1 -5 -7 2 -11 16 -11 18 0 20 -2 8 -10 -12 -8 -11 -10 8 -10 14 0
22 -6 22 -17 0 -15 2 -16 10 -3 7 11 10 11 10 2 0 -8 5 -10 13 -6 8 5 8 2 -2
-9 -7 -9 -10 -18 -5 -18 5 -1 16 -2 24 -3 8 0 14 -7 12 -13 -1 -7 3 -13 9 -13
5 0 7 -5 3 -12 -4 -6 -3 -8 4 -5 5 4 17 4 26 1 13 -5 14 -9 5 -20 -10 -12 -8
-13 6 -8 13 5 16 4 11 -4 -5 -8 0 -12 14 -12 12 0 18 -4 15 -10 -3 -5 0 -10 7
-10 9 0 9 -3 -2 -10 -12 -8 -10 -10 8 -10 13 0 20 -4 17 -10 -6 -9 8 -14 28
-11 5 1 6 -3 2 -9 -3 -6 -12 -8 -18 -4 -7 3 -4 -1 6 -9 9 -8 17 -19 17 -25 0
-6 6 -13 13 -15 9 -4 8 -8 -3 -17 -13 -10 -13 -11 2 -7 16 6 34 -8 38 -26 1
-5 -7 -15 -17 -22 -17 -13 -16 -14 6 -8 14 4 26 1 32 -8 15 -23 10 -34 -6 -13
-14 18 -14 18 -8 -3 3 -13 9 -23 13 -23 4 0 10 -14 14 -31 3 -17 10 -28 15
-25 5 3 7 -4 3 -16 -3 -12 -1 -19 4 -15 6 3 11 -3 11 -14 1 -12 -3 -17 -10
-13 -7 3 -1 -4 12 -15 19 -18 20 -21 6 -21 -14 0 -15 -3 -5 -15 6 -8 9 -19 5
-25 -9 -14 8 -13 25 3 12 10 12 9 2 -4 -6 -9 -9 -19 -5 -23 10 -9 14 -35 15
-78 0 -21 3 -36 7 -34 4 3 7 -4 7 -14 0 -10 -4 -16 -8 -14 -4 3 -8 0 -8 -5 0
-6 4 -11 9 -11 5 0 8 -8 6 -17 -2 -10 -4 -22 -4 -26 -1 -5 -5 -6 -10 -2 -5 3
-13 0 -17 -6 -4 -8 -3 -9 4 -5 7 4 12 1 12 -9 0 -10 5 -13 13 -9 9 6 9 4 -1
-8 -9 -11 -10 -18 -2 -23 6 -3 7 -12 3 -18 -11 -18 -11 -47 0 -54 6 -4 7 -1 2
7 -6 9 -4 11 5 5 10 -6 9 -11 -5 -22 -11 -7 -14 -13 -9 -13 14 0 15 -42 1 -59
-10 -12 -9 -14 7 -7 19 7 19 6 1 -14 -12 -13 -14 -20 -5 -20 10 0 10 -3 0 -15
-10 -12 -10 -15 0 -15 10 0 10 -3 0 -15 -10 -12 -10 -15 0 -15 9 0 9 -4 -1
-17 -8 -9 -9 -14 -3 -10 8 4 11 -2 10 -17 -1 -20 -4 -22 -15 -13 -12 10 -13 9
-4 -8 6 -11 10 -33 9 -50 -1 -16 2 -35 7 -42 4 -6 3 -14 -4 -19 -8 -5 -10 -3
-4 7 5 8 4 10 0 6 -12 -10 -16 -39 -5 -32 5 3 12 0 16 -6 4 -7 3 -9 -3 -6 -14
9 -23 -26 -12 -46 6 -10 4 -21 -7 -31 -11 -12 -12 -16 -2 -16 10 0 10 -2 -1
-9 -11 -7 -11 -9 0 -14 10 -4 10 -6 2 -6 -7 -1 -13 -6 -13 -12 0 -5 6 -7 13
-3 9 6 9 4 0 -7 -14 -14 -18 -33 -5 -25 4 2 8 -4 8 -14 0 -10 -3 -17 -6 -15
-3 1 -11 -3 -18 -11 -9 -10 -9 -14 -1 -14 6 0 9 -6 6 -14 -3 -7 0 -19 6 -25 8
-8 8 -11 -2 -11 -8 0 -10 -7 -6 -20 4 -12 1 -28 -7 -37 -11 -14 -11 -16 2 -8
13 8 13 7 1 -9 -13 -15 -13 -19 0 -27 12 -7 12 -9 -1 -9 -13 0 -13 -1 0 -10
13 -9 13 -10 0 -10 -12 0 -12 -2 -1 -9 9 -6 10 -11 2 -15 -15 -10 -14 -29 1
-21 7 4 4 -1 -6 -9 -11 -9 -15 -16 -10 -16 12 0 5 -81 -8 -97 -12 -15 -1 -36
14 -27 7 4 8 2 4 -5 -4 -6 -12 -8 -18 -5 -6 4 -5 -3 2 -16 8 -15 8 -20 1 -16
-6 4 -11 2 -11 -3 0 -6 8 -11 18 -11 13 0 14 -2 4 -9 -8 -4 -14 -12 -15 -17
-1 -5 -4 -8 -7 -7 -4 1 -6 -9 -6 -23 0 -13 2 -24 6 -24 13 0 4 -50 -10 -51
-10 0 -8 -3 5 -9 11 -5 14 -9 8 -9 -7 -1 -13 -6 -13 -12 0 -5 6 -7 13 -3 6 4
3 -2 -7 -14 -11 -12 -15 -22 -10 -22 6 0 10 -9 11 -20 1 -11 -2 -18 -6 -16 -4
3 -8 -1 -8 -9 0 -8 4 -12 8 -10 4 3 6 -3 4 -12 -2 -10 -4 -21 -4 -25 -1 -4 -9
-5 -18 -2 -10 3 -7 -2 7 -10 l25 -15 -24 -1 c-22 0 -23 -1 -9 -12 15 -11 15
-18 4 -50 -12 -34 -12 -38 2 -38 13 0 12 -3 -4 -15 -13 -10 -14 -14 -5 -15 11
0 11 -3 1 -15 -10 -12 -10 -15 1 -15 10 0 10 -3 3 -8 -15 -10 -23 -70 -10 -76
6 -3 5 -5 -2 -5 -7 -1 -10 -6 -7 -12 4 -5 -1 -19 -10 -29 -15 -17 -15 -19 2
-29 11 -7 13 -11 4 -11 -7 0 -11 -6 -7 -15 3 -10 -1 -15 -12 -15 -13 0 -14 -2
-4 -9 17 -11 17 -21 0 -32 -10 -7 -10 -9 0 -9 7 0 10 -5 7 -10 -4 -6 -12 -7
-18 -3 -7 4 -5 -2 3 -12 9 -11 10 -16 3 -11 -7 4 -13 3 -13 -3 0 -5 5 -13 12
-17 8 -5 6 -11 -6 -20 -10 -7 -17 -15 -17 -18 4 -34 -1 -56 -10 -50 -7 4 -10
1 -7 -7 3 -8 -2 -23 -11 -33 -9 -11 -10 -16 -4 -12 7 4 13 3 13 -2 0 -6 -7
-13 -15 -16 -13 -4 -14 -10 -5 -26 9 -16 8 -18 -5 -14 -18 7 -20 -7 -2 -25 9
-11 9 -13 0 -7 -8 4 -13 1 -13 -8 0 -9 -5 -16 -11 -16 -5 0 -7 -4 -4 -10 3 -5
1 -10 -5 -10 -6 0 -8 -4 -5 -10 3 -5 1 -10 -6 -10 -7 0 -10 -3 -6 -6 8 -8 -27
-72 -50 -91 -10 -8 -12 -11 -4 -7 10 5 12 3 7 -5 -5 -7 -14 -10 -22 -7 -9 3
-11 0 -7 -11 5 -11 3 -14 -6 -8 -10 6 -11 3 -2 -13 9 -16 7 -19 -7 -18 -10 0
-16 -5 -14 -13 2 -9 -3 -11 -14 -7 -12 5 -15 2 -10 -9 3 -9 -1 -18 -9 -21 -8
-3 -17 -14 -20 -25 -4 -10 -11 -19 -18 -19 -8 0 -8 3 1 12 7 7 12 17 12 23 0
5 -5 2 -11 -8 -6 -9 -14 -15 -20 -12 -5 3 -6 -1 -3 -9 4 -9 -1 -18 -10 -22 -9
-3 -13 -10 -10 -15 3 -5 0 -8 -8 -7 -7 2 -12 -2 -11 -9 2 -7 -4 -10 -12 -7 -8
4 -15 1 -15 -6 0 -6 -4 -9 -9 -6 -5 3 -12 -1 -15 -10 -3 -8 -10 -12 -16 -9 -5
3 -10 1 -10 -4 0 -6 -7 -11 -16 -11 -9 0 -12 -5 -8 -12 5 -7 0 -9 -14 -6 -13
4 -23 0 -26 -8 -3 -8 -13 -14 -21 -14 -9 0 -13 -4 -10 -10 3 -5 2 -10 -4 -10
-5 0 -12 6 -14 13 -4 9 -6 9 -6 0 -1 -8 -14 -13 -31 -13 -16 0 -30 -5 -30 -11
0 -5 5 -7 12 -3 7 4 8 3 4 -5 -4 -6 -12 -9 -17 -5 -5 3 -17 0 -25 -7 -8 -6
-17 -9 -21 -6 -3 4 -15 2 -26 -4 -14 -8 -18 -8 -13 0 5 7 1 9 -8 5 -9 -3 -16
-10 -16 -15 0 -5 -9 -9 -21 -9 -11 0 -18 -4 -15 -9 3 -5 -8 -8 -24 -7 -17 1
-30 -2 -30 -7 0 -4 -4 -5 -10 -2 -5 3 -19 1 -30 -5 -15 -8 -20 -8 -20 1 0 8
-4 8 -15 -1 -8 -6 -19 -9 -25 -5 -5 3 -10 1 -10 -6 0 -8 -4 -8 -15 1 -11 9
-15 9 -15 1 0 -7 -5 -9 -10 -6 -6 4 -17 1 -25 -5 -9 -8 -15 -8 -15 -2 0 5 -9
8 -20 5 -11 -3 -17 -10 -13 -17 4 -6 0 -5 -9 2 -9 7 -19 9 -22 4 -2 -4 -19 -7
-35 -6 -17 1 -34 -2 -37 -7 -3 -5 -11 -6 -17 -2 -18 11 -47 11 -40 0 4 -6 -2
-8 -14 -5 -12 3 -27 2 -34 -3 -8 -4 -16 -3 -20 3 -9 14 -50 17 -66 5 -9 -6
-13 -5 -13 4 0 8 -6 6 -16 -7 -8 -10 -13 -14 -10 -7 4 7 -1 11 -14 10 -11 -1
-20 -6 -20 -12 0 -5 -5 -3 -10 5 -5 8 -10 10 -10 3 0 -6 -9 -9 -22 -5 -16 4
-19 2 -13 -9 5 -8 -2 -5 -15 6 -13 11 -20 14 -15 6 6 -11 4 -13 -8 -8 -9 3
-18 1 -21 -6 -2 -7 -5 -5 -5 5 -1 9 -6 20 -13 24 -7 5 -8 3 -3 -6 6 -10 3 -12
-13 -8 -13 4 -22 1 -22 -5 0 -9 -2 -9 -8 0 -4 7 -13 9 -21 4 -7 -5 -26 -7 -42
-5 -18 2 -29 -1 -29 -9 0 -8 -3 -7 -9 3 -6 8 -7 18 -4 24 3 5 1 6 -6 2 -6 -4
-8 -12 -5 -18 4 -7 2 -8 -4 -4 -21 13 -51 15 -58 5 -4 -6 -15 -4 -30 5 -17 12
-22 12 -18 3 3 -9 -4 -13 -20 -13 -14 0 -24 2 -24 6 2 18 -4 23 -11 11 -8 -12
-12 -12 -25 -2 -10 8 -16 9 -16 3 0 -12 -48 -11 -68 2 -7 4 -20 2 -29 -6 -10
-8 -14 -8 -10 -1 5 8 -2 11 -23 9 -16 -1 -32 -5 -36 -9 -3 -3 -13 1 -21 9 -8
8 -19 12 -24 8 -6 -3 -17 0 -26 8 -14 11 -16 11 -8 -1 6 -11 2 -13 -19 -9 -14
3 -29 1 -32 -4 -3 -5 -15 -1 -27 9 -19 17 -20 17 -14 1 8 -22 3 -23 -17 -2
-12 12 -16 12 -16 2 0 -10 -2 -10 -9 1 -8 12 -12 12 -25 2 -10 -9 -16 -10 -16
-2 0 6 -13 9 -30 7 -16 -2 -32 -1 -35 2 -10 10 -55 8 -55 -3 0 -5 -7 -1 -15 9
-12 16 -17 17 -30 6 -12 -10 -15 -10 -15 0 0 9 -4 9 -17 -1 -11 -10 -14 -10
-9 -1 9 15 -6 16 -22 0 -9 -9 -12 -9 -12 1 0 7 -4 9 -10 6 -5 -3 -10 -1 -10 6
0 7 -7 4 -15 -7 -11 -14 -14 -15 -9 -3 4 14 0 16 -31 12 -22 -3 -42 0 -52 9
-14 11 -16 11 -8 -2 6 -12 5 -13 -5 -3 -9 9 -19 9 -33 2 -15 -8 -18 -8 -12 1
5 9 2 10 -13 6 -13 -5 -22 -1 -26 10 -4 11 -10 13 -19 6 -15 -13 -98 -12 -90
1 4 6 -5 8 -21 5 -14 -3 -26 -1 -26 5 0 6 -10 2 -22 -9 -12 -10 -18 -14 -15
-8 4 7 -1 18 -10 25 -12 10 -14 10 -9 2 9 -17 -6 -17 -22 -1 -10 10 -15 10
-22 -2 -9 -13 -11 -13 -19 -1 -8 13 -12 13 -27 0 -10 -8 -15 -9 -11 -3 4 7 -3
14 -18 16 -15 3 -25 1 -25 -6 0 -6 -5 -4 -10 4 -5 8 -10 10 -10 5 0 -6 -9 -11
-20 -11 -11 0 -20 6 -20 14 0 7 -4 11 -9 7 -5 -3 -12 -1 -16 5 -4 6 -16 3 -33
-8 -14 -9 -23 -11 -19 -4 6 8 0 12 -18 12 -18 0 -24 4 -19 13 6 10 4 10 -7 0
-7 -7 -19 -13 -27 -13 -8 0 -10 5 -6 13 6 9 4 9 -8 -1 -13 -10 -17 -10 -21 3
-5 11 -12 13 -31 5 -20 -7 -27 -6 -35 8 -9 15 -10 14 -11 -7 l0 -24 -24 26
c-21 23 -25 24 -31 9 -5 -12 -9 -13 -12 -4 -4 9 -9 10 -18 2 -9 -7 -16 -6 -23
3 -7 8 -26 12 -47 11 -24 -2 -33 0 -29 8 5 7 2 8 -7 2 -21 -13 -40 -14 -33 -2
5 7 -4 9 -24 6 -17 -2 -33 0 -35 5 -4 12 -76 16 -83 5 -3 -4 -12 -2 -20 6 -8
9 -25 13 -40 10 -14 -3 -32 0 -40 7 -11 9 -14 9 -14 -1 0 -10 -3 -10 -14 -1
-8 7 -33 10 -60 8 -25 -3 -43 -1 -41 3 9 14 -15 22 -29 10 -11 -8 -15 -8 -18
1 -2 7 -12 13 -21 15 -11 1 -15 -2 -11 -9 5 -8 2 -7 -7 1 -17 16 -32 16 -23 0
6 -10 5 -10 -8 -1 -8 7 -18 10 -21 6 -4 -3 -12 -2 -19 4 -7 5 -29 9 -48 8 -19
0 -38 5 -42 10 -5 6 -8 4 -8 -4 0 -11 -4 -9 -15 5 -11 14 -14 15 -15 4 0 -13
-1 -13 -10 0 -8 12 -10 12 -10 1 0 -10 -3 -11 -13 -2 -10 8 -17 7 -27 -2 -10
-10 -12 -9 -7 6 5 12 3 16 -4 11 -6 -4 -15 0 -20 7 -7 11 -9 11 -9 -2 0 -12
-8 -14 -30 -11 -16 2 -30 8 -30 12 0 10 -81 7 -97 -3 -6 -4 -19 -4 -29 0 -12
4 -15 3 -10 -5 4 -7 1 -12 -9 -12 -10 0 -13 -5 -9 -12 5 -8 2 -9 -11 -4 -16 6
-16 4 -4 -11 8 -9 9 -14 4 -11 -6 4 -17 3 -25 -3 -8 -5 -10 -9 -5 -9 12 0 13
-60 0 -79 -5 -10 -4 -12 3 -7 8 5 12 -1 12 -18 0 -14 5 -28 12 -32 7 -5 8 -3
3 6 -5 8 -4 11 3 6 6 -4 8 -14 5 -23 -4 -11 -3 -14 5 -9 8 5 12 -1 12 -18 0
-14 4 -26 10 -26 5 0 7 8 4 18 -5 14 -4 14 4 2 6 -8 8 -18 6 -22 -3 -4 0 -8 6
-8 7 0 9 -7 6 -16 -5 -13 -2 -15 15 -11 11 3 18 3 15 0 -3 -4 0 -13 7 -22 11
-14 10 -14 -6 -2 -15 12 -17 12 -11 -3 3 -9 10 -16 16 -16 5 0 6 -4 3 -10 -3
-6 4 -10 17 -11 22 0 22 -1 3 -9 -18 -8 -18 -9 5 -9 20 -1 22 -3 10 -11 -13
-8 -12 -10 4 -10 11 0 16 -5 13 -14 -3 -8 1 -17 9 -20 10 -4 12 -2 8 6 -4 7
-3 8 4 4 7 -4 12 -14 12 -22 0 -9 5 -12 11 -8 7 4 7 -2 -1 -17 -10 -20 -10
-22 1 -11 17 16 32 16 22 0 -11 -19 -13 -39 -2 -32 5 3 6 11 2 17 -4 7 0 6 10
-2 9 -7 17 -20 17 -27 0 -8 5 -14 10 -14 6 0 10 -9 10 -20 0 -12 10 -25 25
-32 20 -9 22 -14 14 -31 -6 -11 -7 -17 -2 -14 5 3 22 -3 39 -15 16 -11 21 -18
12 -14 -10 3 -20 0 -24 -6 -4 -6 -3 -8 4 -4 6 3 22 -5 35 -18 14 -14 27 -23
29 -21 2 2 4 -5 5 -16 2 -28 21 -49 44 -49 21 0 25 -15 7 -26 -7 -4 -8 -3 -4
4 5 8 2 10 -9 6 -24 -10 -7 -19 45 -24 10 -1 9 -4 -5 -10 -18 -8 -18 -9 -2 -9
11 -1 15 -5 11 -13 -5 -8 -2 -9 10 -5 9 4 15 3 11 -2 -3 -5 0 -11 5 -13 6 -2
12 -13 13 -25 0 -12 5 -19 9 -17 4 3 16 0 25 -6 17 -11 17 -11 0 -6 -11 3 -15
2 -12 -4 3 -6 12 -10 20 -10 8 0 17 -5 21 -12 5 -7 3 -8 -7 -3 -11 7 -12 6 -2
-7 7 -8 10 -18 7 -21 -4 -4 4 -4 16 -2 18 3 21 2 12 -7 -15 -15 -15 -28 -1
-28 5 0 7 5 4 10 -3 6 0 10 8 10 18 0 18 -32 0 -45 -12 -9 -11 -11 6 -11 11 0
17 4 15 8 -3 4 0 8 5 8 6 0 11 -7 11 -16 0 -10 6 -14 14 -11 9 4 17 -2 21 -14
4 -10 11 -19 16 -19 5 0 8 -6 6 -13 -1 -6 4 -11 12 -9 12 3 12 0 2 -12 -10
-12 -9 -14 11 -9 18 4 20 3 8 -6 -10 -7 -11 -11 -2 -11 6 0 12 -7 12 -16 0 -8
4 -13 9 -10 5 3 12 -1 15 -10 3 -8 10 -12 16 -9 5 3 7 0 4 -8 -3 -8 3 -20 13
-28 17 -13 17 -13 3 5 -14 18 -14 18 7 6 12 -8 20 -17 17 -21 -2 -4 5 -11 17
-14 17 -6 19 -9 8 -16 -12 -7 -11 -9 1 -10 8 -1 18 -1 22 0 5 0 7 -2 7 -7 -3
-20 3 -31 21 -37 11 -4 18 -11 15 -16 -4 -5 1 -9 9 -9 9 0 16 -7 16 -16 0 -10
5 -14 16 -10 8 3 13 2 11 -2 -7 -10 19 -32 29 -24 5 4 2 -2 -6 -12 -14 -18
-13 -18 10 -11 23 7 24 7 10 -10 -9 -11 -10 -16 -3 -11 8 4 13 2 13 -4 0 -6 4
-8 10 -5 14 9 13 -8 -2 -23 -9 -9 -9 -12 0 -12 7 0 12 5 12 10 0 6 7 10 16 10
8 0 12 -4 9 -10 -3 -5 -2 -10 3 -10 11 0 52 -35 52 -44 0 -4 -4 -5 -9 -1 -5 3
-12 1 -16 -4 -3 -6 4 -8 16 -6 23 5 47 -5 48 -18 1 -14 28 -36 36 -29 5 4 5 2
2 -4 -4 -7 0 -15 9 -18 9 -4 14 -13 10 -21 -9 -24 4 -17 15 7 9 21 9 21 6 -5
-3 -15 0 -30 6 -34 5 -3 7 -1 3 5 -3 6 -2 13 4 17 5 3 10 -1 10 -9 0 -9 5 -16
11 -16 5 0 7 -6 3 -12 -6 -10 -4 -10 8 0 10 8 19 9 22 3 4 -5 -2 -15 -11 -21
-16 -10 -16 -10 3 -5 13 3 28 0 37 -9 8 -8 17 -12 21 -9 6 6 10 -21 7 -40 -1
-5 3 -6 9 -2 6 3 8 10 5 15 -3 5 0 12 7 16 7 4 10 4 6 0 -8 -9 37 -57 55 -60
24 -3 37 -18 37 -39 0 -18 2 -19 10 -7 6 10 10 11 10 3 0 -7 8 -13 19 -13 10
0 29 -13 42 -29 28 -33 63 -53 75 -43 5 4 3 0 -4 -9 -10 -14 -9 -16 5 -16 35
0 44 -3 38 -13 -4 -6 6 -10 22 -10 22 0 25 -2 13 -10 -12 -8 -10 -10 10 -11
14 -1 28 -1 32 0 4 0 5 -6 2 -14 -4 -8 -11 -12 -17 -8 -6 4 -7 1 -2 -6 5 -9
10 -10 18 -2 15 15 30 14 24 -2 -4 -10 2 -13 19 -9 14 2 24 0 24 -7 0 -7 5 -9
13 -5 7 5 6 0 -3 -11 -9 -11 -10 -16 -2 -11 6 4 12 3 12 -2 0 -6 9 -8 20 -5
12 3 20 0 20 -6 0 -7 5 -9 10 -6 6 3 13 0 16 -9 3 -8 12 -12 20 -9 14 5 20
-12 7 -20 -5 -2 -3 -2 4 -1 7 2 15 -1 18 -7 4 -5 11 -6 17 -3 6 4 14 1 18 -5
4 -7 17 -13 28 -14 12 -1 22 -5 22 -10 0 -4 6 -5 12 -1 8 5 7 0 -2 -11 -14
-17 -14 -18 7 -6 15 7 23 8 23 1 0 -5 -5 -10 -12 -10 -6 0 -8 -3 -5 -6 4 -4
13 -1 22 6 12 10 15 10 15 -1 0 -8 15 -23 33 -34 34 -21 61 -33 38 -17 -9 6
-10 12 -3 16 6 4 16 -2 21 -13 7 -13 17 -17 31 -14 12 3 20 0 20 -7 0 -7 8 -9
20 -5 15 5 20 2 20 -10 0 -12 6 -16 20 -12 11 3 20 1 20 -3 0 -5 11 -7 25 -5
17 1 32 -6 46 -24 11 -14 18 -20 14 -13 -3 6 -1 12 4 12 6 0 11 -7 11 -15 0
-8 5 -15 11 -15 5 0 7 5 4 10 -4 6 5 5 19 -2 14 -6 26 -15 26 -19 0 -4 9 -6
19 -4 11 2 30 -5 42 -16 14 -12 26 -16 32 -10 11 11 38 3 49 -13 5 -7 8 -6 8
2 0 10 4 9 16 -2 8 -9 20 -14 25 -11 5 4 9 1 9 -4 0 -6 9 -11 21 -11 11 0 18
-4 15 -8 -6 -10 30 -9 40 1 11 10 24 8 24 -4 0 -5 -6 -7 -13 -3 -6 4 -8 3 -4
-1 12 -14 37 -15 37 -2 0 7 7 4 14 -5 9 -12 24 -17 48 -15 26 2 35 0 31 -10
-6 -16 2 -16 30 -1 20 10 21 9 9 -5 -11 -13 -10 -15 7 -10 12 3 21 1 21 -4 0
-5 15 -9 33 -8 17 0 38 -3 45 -8 6 -5 12 -6 12 -1 1 5 7 -2 14 -15 11 -20 14
-21 19 -7 5 12 3 15 -6 10 -6 -4 -8 -3 -4 1 10 12 38 15 31 4 -6 -10 4 -12 49
-11 24 1 32 -8 28 -31 -1 -5 3 -6 9 -2 5 3 10 14 11 23 1 11 4 8 9 -8 4 -14 8
-18 9 -10 1 20 53 19 59 -1 3 -11 1 -11 -7 1 -13 18 -15 1 -2 -18 7 -11 9 -10
14 3 5 12 11 14 26 5 29 -15 38 -12 15 6 -18 15 -18 15 2 5 12 -6 25 -7 29 -3
3 4 6 3 5 -3 -5 -21 1 -29 10 -15 6 10 10 11 10 3 0 -7 5 -13 11 -13 5 0 8 4
5 8 -2 4 6 8 19 8 13 0 22 -3 19 -7 -2 -5 6 -13 18 -20 22 -12 22 -11 8 6 -14
17 -13 17 5 8 11 -6 26 -8 34 -5 9 3 11 0 6 -8 -5 -8 -4 -11 3 -6 6 3 14 2 17
-4 4 -7 11 -7 18 -2 19 14 49 23 42 12 -8 -13 11 -13 38 1 18 9 20 9 9 -2 -16
-17 -16 -37 0 -21 14 14 32 16 24 3 -5 -8 22 -8 32 -1 13 11 49 2 59 -15 12
-20 12 -20 13 3 0 12 5 22 11 22 5 0 8 -4 5 -9 -3 -5 1 -14 9 -21 13 -11 14
-10 9 6 -6 17 -4 16 18 -4 18 -16 25 -18 25 -8 0 8 -4 13 -8 11 -4 -3 -9 2
-12 10 -5 12 -2 12 21 2 15 -6 30 -16 34 -22 5 -6 8 -5 8 3 0 6 5 12 11 12 5
0 7 -6 3 -13 -6 -9 -5 -9 7 0 12 10 18 10 29 0 10 -9 11 -9 6 0 -4 7 -3 13 3
13 5 0 12 -6 14 -12 3 -8 6 -6 6 5 1 9 5 17 11 17 5 0 9 -3 9 -7 -4 -22 3 -25
16 -7 14 18 14 18 10 -3 -3 -16 0 -20 11 -16 7 3 11 10 7 17 -3 6 3 3 14 -7
16 -14 23 -15 29 -6 5 8 3 10 -7 4 -8 -5 -11 -4 -6 0 10 12 88 15 81 4 -3 -5
-1 -9 5 -9 5 0 12 6 14 13 4 10 6 10 6 0 1 -7 6 -13 12 -13 5 0 7 6 3 13 -6 9
-4 9 7 0 17 -17 43 -17 33 0 -6 8 -3 8 9 -1 9 -8 22 -10 29 -6 19 12 68 14 68
3 0 -5 5 -9 11 -9 5 0 8 4 5 8 -3 5 2 9 10 9 9 0 13 -6 10 -14 -3 -8 -1 -11 5
-8 5 4 18 1 27 -6 16 -13 16 -12 0 7 -16 19 -16 20 2 20 10 0 16 -4 14 -8 -3
-4 2 -8 10 -8 9 0 16 6 16 13 0 8 3 7 9 -3 6 -8 7 -18 5 -22 -3 -4 3 -5 12 -1
11 4 13 8 6 11 -23 7 -12 17 20 19 18 0 36 -4 40 -11 6 -8 8 -8 8 2 0 6 9 12
19 12 11 0 23 5 26 10 5 8 11 8 19 1 9 -7 16 -7 23 0 12 12 36 3 28 -11 -3 -5
-1 -11 4 -15 6 -3 8 3 6 15 -2 13 1 20 11 20 10 0 12 -5 8 -12 -5 -8 -2 -8 10
1 9 8 16 10 14 4 -2 -6 2 -11 7 -11 6 -1 8 7 7 16 -3 12 2 10 17 -7 12 -13 21
-19 21 -13 0 7 7 9 17 5 10 -4 14 -2 10 4 -3 5 0 10 8 10 8 0 11 -5 8 -11 -4
-6 1 -5 10 3 11 9 17 10 17 2 0 -6 4 -11 9 -11 5 0 7 10 4 23 -4 21 -3 21 11
-3 12 -19 15 -21 16 -8 0 14 4 16 25 8 18 -7 24 -6 22 2 -1 7 7 12 18 13 11 0
25 4 32 8 8 5 11 1 8 -13 -2 -11 0 -18 6 -15 5 4 9 12 9 19 0 8 13 12 36 11
25 -2 34 2 30 11 -3 8 0 11 10 7 7 -3 14 0 14 7 0 7 6 6 16 -4 20 -21 27 -20
15 2 -8 15 -5 17 14 17 13 -1 30 -7 38 -13 11 -9 18 -8 32 8 18 20 72 29 60
10 -3 -6 -1 -10 4 -10 6 0 11 7 11 15 0 8 7 16 15 16 51 4 61 4 67 -6 5 -6 8
-2 8 9 0 14 3 16 13 8 14 -12 43 0 34 15 -3 5 3 9 13 9 10 0 17 -3 15 -6 -2
-4 2 -7 9 -7 8 0 12 6 9 14 -3 7 -1 13 5 13 6 0 12 -6 15 -12 3 -10 8 -10 18
1 12 12 12 13 0 6 -9 -5 -12 -4 -7 3 3 6 20 9 36 7 17 -2 30 0 30 5 0 4 6 10
14 13 10 4 13 0 11 -14 -2 -11 0 -17 6 -14 5 4 7 11 4 16 -4 5 -1 9 5 9 6 0 9
4 5 9 -3 5 0 13 6 17 8 5 9 3 5 -5 -6 -8 -2 -11 10 -9 12 2 18 -2 16 -10 -1
-8 2 -11 9 -7 8 5 8 10 0 18 -6 6 -11 14 -11 17 0 9 32 6 49 -5 10 -6 12 -4 6
5 -6 10 -2 12 18 8 18 -4 24 -1 20 9 -6 15 9 17 23 3 7 -7 17 -3 30 12 l19 23
-21 -18 c-19 -16 -22 -16 -28 -2 -3 10 -2 14 5 10 5 -4 16 -2 24 5 10 9 16 7
24 -7 10 -17 10 -17 11 -1 0 10 6 17 13 15 6 -1 11 4 9 12 -3 12 0 12 12 2 11
-9 16 -9 22 0 5 8 3 9 -7 4 -12 -8 -12 -6 0 8 12 15 31 15 31 1 0 -3 -5 -2
-12 2 -7 4 -8 3 -4 -5 8 -13 32 0 49 27 7 11 11 11 25 0 10 -9 13 -9 9 -1 -5
7 1 16 12 23 13 7 22 7 26 0 4 -6 11 -8 16 -4 6 4 6 11 -1 19 -9 10 -7 13 7
10 10 -1 17 -8 15 -15 -1 -6 2 -9 7 -5 6 3 8 12 5 20 -4 10 0 12 15 8 14 -4
21 -1 21 10 0 8 7 18 16 21 15 6 15 4 3 -11 -13 -17 -13 -17 7 -1 16 14 23 15
34 5 8 -6 6 -1 -5 12 l-20 24 22 -12 c20 -10 22 -9 16 5 -4 11 -2 15 4 11 6
-4 13 -2 15 4 2 6 15 12 28 13 16 1 25 7 24 17 -1 12 5 14 24 11 21 -4 24 -2
18 14 -4 10 -4 15 0 12 10 -11 45 12 38 24 -4 7 -3 8 5 4 6 -4 8 -13 4 -19 -4
-7 0 -6 10 2 9 7 15 17 12 21 -3 4 2 11 11 14 8 3 12 2 9 -4 -3 -6 -1 -10 4
-10 6 0 11 7 11 16 0 9 5 12 12 8 7 -5 9 -2 5 9 -4 11 -2 14 7 11 8 -3 23 4
34 16 11 12 25 19 31 15 10 -6 16 8 12 29 -1 5 4 4 13 -3 11 -9 16 -9 22 0 5
8 3 9 -6 4 -9 -5 -11 -4 -6 4 4 7 15 11 24 9 25 -4 42 10 35 29 -4 10 -2 14 4
10 6 -4 14 1 18 11 7 16 8 15 15 -3 7 -16 9 -17 9 -3 1 9 10 20 21 23 17 6 24
16 22 36 0 3 9 11 21 19 21 12 21 12 7 -6 -14 -18 -14 -18 3 -5 10 8 16 20 13
28 -4 10 -1 11 14 3 16 -9 18 -7 15 10 -2 11 0 18 5 15 4 -3 15 -2 24 1 13 5
14 9 5 20 -10 12 -8 13 6 8 13 -5 16 -4 11 4 -4 7 -2 10 7 7 7 -3 22 4 33 16
10 13 13 19 5 14 -10 -6 -12 -4 -7 4 6 9 11 9 24 -1 10 -8 13 -9 9 -1 -4 6 -3
14 3 18 6 4 7 11 4 17 -4 5 4 4 17 -3 23 -12 23 -11 9 6 -14 17 -13 18 3 12
12 -5 16 -3 11 5 -4 6 0 16 8 22 8 6 20 20 27 31 7 11 10 13 8 4 -3 -9 0 -16
7 -16 7 0 11 12 10 29 -1 15 2 25 7 22 5 -3 7 -9 4 -14 -3 -5 0 -12 6 -16 7
-4 9 -3 5 4 -3 6 1 17 9 25 8 9 15 21 15 28 0 9 3 9 14 0 12 -10 13 -8 9 8 -4
15 -1 21 11 21 9 0 16 4 16 10 0 5 5 9 12 7 7 -1 12 3 13 8 2 24 27 55 43 53
11 -2 18 5 20 20 2 12 8 20 13 17 5 -4 9 2 9 11 0 16 2 15 22 -2 18 -15 20
-16 9 -2 -18 23 -7 50 16 41 16 -6 16 -5 4 10 -12 16 -8 22 13 18 5 -1 6 5 3
14 -4 8 -2 15 3 15 6 0 10 -6 10 -12 0 -9 2 -10 8 -2 9 15 52 28 52 16 0 -5 6
-9 14 -9 9 0 12 6 8 16 -5 14 -3 14 11 2 9 -7 14 -17 11 -22 -3 -5 -1 -9 4 -9
10 0 49 -88 56 -125 9 -45 56 -172 78 -211 64 -112 166 -208 278 -261 8 -4 24
-15 34 -25 11 -10 25 -18 32 -18 7 0 14 -3 16 -7 2 -5 26 -24 54 -43 82 -56
219 -173 273 -233 14 -16 39 -43 54 -60 55 -61 206 -302 198 -316 -2 -2 1 -7
6 -10 12 -8 44 -78 103 -224 47 -115 100 -199 165 -260 38 -36 110 -87 123
-87 6 0 12 -3 14 -7 2 -5 28 -19 58 -32 56 -25 167 -94 185 -115 6 -6 29 -24
51 -39 66 -44 226 -206 276 -277 84 -120 171 -191 306 -248 29 -13 70 -24 91
-26 20 -1 43 -6 49 -10 7 -4 12 -5 12 -2 0 3 12 1 26 -5 15 -5 42 -12 62 -15
41 -7 263 -77 318 -101 21 -9 42 -16 46 -15 3 1 12 -5 18 -13 7 -8 19 -15 26
-15 25 0 166 -91 264 -169 98 -79 233 -210 334 -325 33 -38 69 -72 80 -77 12
-5 43 -23 69 -39 76 -48 160 -71 307 -86 25 -2 52 -6 60 -8 8 -1 33 -6 55 -11
22 -4 45 -10 50 -14 6 -3 15 -6 20 -8 65 -15 136 -38 161 -54 17 -10 36 -19
42 -19 23 0 129 -56 212 -110 107 -71 183 -107 243 -114 12 -2 38 -6 57 -9 75
-14 99 -15 146 -5 52 9 72 12 169 23 33 3 71 8 85 11 37 6 313 6 341 0 13 -3
42 -8 64 -10 76 -9 120 -19 146 -32 15 -7 29 -11 31 -8 3 3 16 0 29 -5 33 -13
63 -24 69 -25 5 -1 59 -22 100 -38 67 -27 201 -92 301 -145 42 -23 92 -44 112
-47 20 -3 56 -10 79 -15 68 -15 184 -5 303 24 102 26 125 28 310 27 184 0 245
-4 285 -18 8 -3 26 -8 39 -10 13 -3 49 -11 80 -18 134 -31 332 2 443 74 34 22
66 40 72 40 5 0 40 16 78 35 136 71 365 146 488 160 30 4 66 9 80 11 39 6 279
5 345 -2 75 -8 110 -12 110 -14 0 -1 18 -3 40 -5 22 -2 61 -8 87 -13 47 -9 80
-8 148 4 19 3 48 8 64 11 50 8 176 62 176 76 0 4 6 7 13 7 7 0 22 8 33 18 33
30 176 111 198 112 5 0 32 11 60 24 53 26 194 72 248 81 17 3 34 8 38 10 3 2
40 7 81 10 130 11 215 36 312 92 34 20 64 40 65 45 2 4 10 8 17 8 7 0 15 4 17
9 5 15 94 115 171 194 110 111 283 257 306 257 6 0 11 4 11 9 0 9 232 129 261
135 8 2 25 8 39 13 63 26 201 67 269 80 14 2 28 6 32 9 4 2 43 10 86 18 93 16
213 73 289 138 28 23 84 87 125 141 107 143 318 329 447 395 23 12 61 32 85
44 89 46 90 47 160 108 68 61 131 149 157 218 11 31 24 64 27 72 3 8 7 17 8
20 52 146 212 417 315 534 53 60 68 74 165 156 91 77 210 161 352 249 69 43
139 116 189 199 37 61 79 166 87 217 1 11 5 25 8 30 4 6 12 28 19 50 7 22 16
45 20 50 5 6 25 44 45 85 21 41 52 96 70 121 18 26 40 60 48 76 9 16 51 67 94
113 103 112 145 171 176 250 37 94 45 140 51 285 7 148 17 254 30 315 3 14 8
41 11 60 2 19 16 76 30 125 14 50 27 97 29 105 9 34 79 170 87 170 5 0 9 6 9
14 0 23 33 29 47 10 8 -12 13 -13 13 -5 0 9 6 11 18 6 9 -4 27 -8 40 -8 20 -1
27 -9 23 -30 -1 -5 9 -1 21 7 29 21 33 20 58 -6 11 -12 23 -18 27 -15 3 4 1 7
-5 7 -7 0 -12 4 -12 8 0 5 7 9 15 9 8 0 15 -5 15 -10 0 -5 6 -4 14 2 11 9 16
9 22 0 5 -8 3 -9 -6 -4 -9 5 -11 4 -6 -3 4 -8 14 -9 24 -4 30 14 104 6 114
-13 9 -15 12 -15 33 5 19 17 25 19 36 8 8 -7 23 -20 34 -28 18 -14 19 -14 7 1
-11 14 -9 17 12 17 18 0 23 -5 18 -17 -5 -14 -4 -14 11 1 10 9 24 15 32 12 7
-3 23 0 36 6 18 10 21 10 17 -2 -4 -9 1 -14 12 -14 10 0 17 3 14 7 -2 4 3 10
12 13 8 3 12 2 9 -4 -3 -6 2 -10 12 -10 11 0 25 -6 32 -12 7 -7 12 -8 11 -3
-5 22 1 27 17 14 14 -12 15 -12 9 0 -7 10 -4 12 12 7 11 -4 23 -2 27 4 4 7 11
7 18 2 22 -17 46 -21 53 -10 4 6 3 8 -2 5 -6 -3 -16 -1 -24 5 -12 8 -12 9 3 4
9 -3 17 -1 17 5 0 6 9 1 21 -12 11 -13 18 -18 14 -11 -5 10 0 11 21 6 21 -6
25 -4 19 7 -8 12 -6 12 8 0 11 -8 22 -10 30 -5 14 11 37 11 54 1 6 -4 15 -2
19 4 5 8 3 9 -7 4 -8 -5 -11 -4 -7 0 14 15 58 15 58 -1 0 -8 4 -14 10 -14 5 0
7 6 4 14 -7 17 12 31 21 16 5 -7 11 -8 19 -1 13 11 34 10 55 -3 9 -6 12 -5 8
1 -4 6 5 13 21 15 15 3 35 9 45 13 10 4 17 3 17 -5 0 -6 -5 -8 -12 -4 -7 4 -8
3 -4 -4 4 -6 13 -9 21 -6 8 4 13 9 11 13 -7 10 36 7 53 -3 10 -6 12 -6 7 2 -5
8 0 12 13 12 10 0 21 3 24 8 2 4 3 3 2 -3 -2 -5 10 -10 25 -10 17 0 26 5 23
12 -5 12 14 12 35 0 7 -5 14 -2 18 7 4 11 13 14 32 9 14 -3 23 -2 19 3 -3 5 8
10 24 10 16 1 29 -1 29 -5 0 -3 15 -7 33 -7 17 -1 26 1 20 3 -7 3 -13 9 -13
14 0 4 7 6 15 3 9 -4 15 0 15 7 0 10 3 10 8 3 4 -6 18 -16 32 -23 22 -11 23
-10 8 2 -22 17 -22 23 -2 31 8 3 13 2 10 -2 -3 -4 4 -13 15 -20 10 -7 19 -9
18 -5 -1 5 -1 15 0 23 1 13 2 13 11 0 8 -12 10 -12 10 -1 0 11 3 11 17 0 11
-10 14 -10 9 -1 -4 7 -2 12 6 13 7 1 20 2 28 3 8 0 20 -6 27 -14 10 -13 12
-11 8 8 -3 15 0 20 7 16 6 -4 26 -8 44 -9 29 -1 32 1 21 14 -10 12 -9 14 7 8
14 -6 17 -4 12 10 -5 13 0 11 21 -7 17 -16 22 -18 13 -6 -14 18 -13 19 4 13
13 -5 17 -3 13 7 -4 10 0 12 15 8 16 -4 19 -2 13 9 -7 12 -6 12 9 0 15 -13 19
-13 27 0 5 8 9 9 9 4 0 -6 9 -11 19 -11 16 0 18 3 8 15 -10 12 -9 13 11 2 15
-8 22 -8 22 -1 0 6 5 8 10 5 6 -3 24 3 40 15 26 19 33 20 47 8 9 -7 14 -8 10
-2 -4 7 1 15 11 19 24 10 72 14 72 6 0 -4 8 -7 19 -7 13 0 17 6 14 21 -3 11
-1 16 4 10 13 -16 33 -16 33 -1 0 8 5 18 12 22 6 4 8 3 4 -4 -4 -7 2 -10 14
-9 11 1 19 6 16 12 -2 7 5 11 17 10 12 -1 30 2 41 7 12 7 21 7 25 -1 5 -7 12
-4 21 8 7 11 20 17 28 13 9 -3 13 -1 9 5 -3 5 0 10 8 10 8 0 11 -5 8 -11 -4
-6 0 -5 9 1 8 7 17 11 20 8 3 -3 18 1 33 9 16 8 33 12 39 9 6 -4 5 0 -2 9 -10
13 -10 18 -1 24 8 4 9 3 5 -4 -11 -18 15 -14 37 6 11 9 17 11 13 5 -11 -19 5
-16 19 4 7 9 22 17 33 18 16 1 19 -2 11 -11 -7 -9 -6 -14 3 -20 7 -4 10 -4 6
1 -13 14 13 37 28 25 9 -9 12 -7 9 7 -1 10 -8 17 -15 15 -6 -1 -9 2 -5 8 5 8
11 7 21 -1 11 -9 14 -8 14 2 0 11 2 11 10 -1 9 -14 15 -7 11 14 -1 5 4 4 13
-3 11 -9 16 -9 22 0 5 8 3 10 -7 4 -12 -7 -12 -6 0 6 10 11 15 11 18 2 4 -10
8 -9 19 2 8 8 22 11 31 8 12 -5 14 -3 8 7 -6 10 -4 12 8 7 12 -4 14 -2 10 11
-6 15 -5 16 12 2 17 -14 18 -13 12 2 -4 12 -2 15 8 11 8 -3 12 -10 8 -16 -3
-6 -1 -7 6 -3 6 4 8 12 5 18 -5 8 -1 9 11 4 15 -5 16 -4 6 8 -7 8 -8 17 -3 20
13 8 34 -18 24 -29 -4 -5 -2 -5 5 -1 7 4 9 14 6 24 -6 15 -5 15 10 3 15 -12
17 -12 11 3 -5 12 -2 15 12 9 10 -4 15 -2 11 3 -3 5 8 17 24 26 20 12 31 13
35 6 4 -6 3 -8 -3 -5 -6 4 -16 0 -22 -7 -9 -10 -9 -16 -1 -21 6 -4 9 -1 8 6
-2 7 4 13 12 14 8 0 14 9 13 19 -1 13 4 16 18 13 13 -4 19 0 19 11 0 15 2 15
10 2 9 -13 14 -7 11 12 0 4 7 4 16 1 12 -5 14 -3 8 8 -7 11 -5 11 10 -1 10 -8
16 -10 12 -4 -4 7 1 18 10 25 15 12 16 12 10 -3 -3 -10 -1 -20 5 -24 6 -4 8
-3 4 4 -3 6 -2 13 4 17 6 4 8 10 5 15 -3 4 2 11 11 14 8 3 12 2 9 -4 -9 -15 9
-12 31 5 12 10 14 14 4 12 -8 -2 -12 -2 -7 0 4 3 5 8 3 12 -3 4 5 7 17 7 12
-1 21 4 20 10 -1 6 4 11 12 11 8 0 13 -5 12 -10 -1 -5 5 -12 13 -14 9 -3 11
-1 5 4 -5 4 -11 16 -11 26 -2 17 -1 17 16 2 16 -15 17 -14 15 8 -2 20 1 24 16
20 10 -3 16 -10 12 -16 -3 -6 -1 -7 6 -3 9 6 9 11 1 21 -9 11 -7 14 12 13 13
-1 29 -6 37 -12 12 -9 13 -8 6 4 -20 32 -14 42 13 24 l27 -17 -20 23 -20 23
25 -13 c23 -12 24 -12 11 3 -11 15 -10 18 12 26 14 5 28 14 31 20 4 6 14 7 23
4 13 -5 15 -2 10 11 -4 9 -3 15 2 12 10 -7 34 18 26 26 -3 3 6 4 20 3 22 -3
29 4 27 26 -1 4 8 5 19 2 11 -3 19 -2 17 3 -2 5 0 9 3 9 3 0 13 6 21 13 13 10
17 10 22 0 3 -7 4 -3 2 9 -2 13 1 26 6 30 6 3 8 1 4 -5 -3 -6 -2 -13 3 -16 5
-3 11 4 14 15 3 12 10 18 16 14 7 -4 9 1 5 12 -5 16 -3 15 11 -2 17 -20 17
-20 11 2 -4 12 -2 24 5 29 8 5 10 2 5 -7 -4 -8 -1 -6 7 3 8 10 18 14 22 10 5
-4 5 2 1 12 -5 15 -4 17 8 7 9 -7 17 -8 20 -2 3 5 0 12 -6 14 -13 5 17 11 36
8 5 -1 3 6 -5 15 -13 16 -12 16 8 5 18 -9 22 -9 17 2 -7 19 22 40 46 34 11 -3
23 0 27 5 3 6 1 8 -4 5 -6 -4 -13 0 -16 7 -4 10 0 14 13 11 10 -2 25 4 32 13
10 12 10 14 1 8 -8 -4 -13 -2 -13 5 0 7 8 9 21 6 16 -4 18 -3 9 8 -8 10 -8 15
1 21 8 4 9 3 5 -4 -4 -7 -2 -12 3 -12 6 0 11 7 11 16 0 11 6 15 20 11 10 -3
19 -2 18 2 -3 24 4 33 23 28 16 -4 18 -3 9 8 -8 9 -8 15 0 20 5 3 10 1 10 -5
0 -6 4 -9 10 -5 5 3 6 13 3 22 -4 11 -3 14 5 9 7 -4 12 -3 12 3 0 6 10 15 21
22 13 7 19 7 15 1 -3 -6 -2 -13 3 -16 11 -7 9 13 -2 31 -6 9 -3 11 9 6 14 -5
16 -3 11 11 -4 10 -3 15 3 11 6 -3 10 -2 10 4 0 6 7 7 17 4 11 -4 14 -3 9 6
-6 8 -2 11 10 9 14 -2 19 3 18 19 -1 13 2 20 7 17 4 -2 15 6 24 20 11 16 23
23 37 21 16 -3 18 -2 8 10 -10 12 -8 13 7 10 12 -2 20 2 20 10 0 8 -5 11 -10
8 -5 -3 -7 0 -5 8 3 8 14 13 24 12 10 -1 13 0 7 3 -7 3 -13 12 -13 20 0 9 5
13 13 9 6 -4 4 0 -6 8 -14 11 -15 16 -5 21 9 4 10 8 2 11 -6 3 -10 20 -8 38 3
23 1 28 -6 17 -8 -13 -12 -12 -29 7 -11 11 -17 23 -14 26 3 3 -5 3 -18 0 -17
-5 -20 -3 -14 8 7 11 5 11 -10 -1 -10 -8 -16 -10 -12 -3 10 16 -11 21 -55 13
-21 -4 -38 -3 -38 1 0 5 -5 9 -11 9 -5 0 -7 -6 -3 -12 4 -7 -3 -4 -16 7 -13
11 -20 14 -16 8 4 -7 2 -13 -3 -13 -6 0 -11 6 -11 13 0 9 -2 9 -9 -1 -4 -8
-19 -11 -34 -8 -15 3 -27 0 -27 -5 0 -6 -8 -5 -20 1 -11 6 -25 8 -30 5 -6 -3
-10 -1 -10 4 0 13 -22 10 -33 -4 -6 -6 -10 -6 -14 2 -3 9 -10 10 -24 3 -14 -8
-19 -7 -19 2 0 9 -3 9 -12 0 -15 -15 -32 -16 -23 -2 9 14 -8 12 -24 -2 -11
-10 -13 -10 -7 0 4 7 2 12 -6 12 -8 0 -20 -6 -27 -12 -10 -9 -12 -9 -7 -1 4 8
-4 11 -29 10 -19 -1 -35 -6 -35 -12 0 -5 -5 -2 -11 8 -6 9 -15 15 -20 11 -5
-3 -17 0 -26 8 -12 9 -15 9 -9 1 5 -9 0 -13 -13 -14 -12 -1 -27 -2 -33 -3 -7
-1 -21 5 -31 13 -16 13 -17 13 -12 -1 8 -21 -22 -18 -36 3 -5 8 -9 9 -9 3 0
-6 -12 -10 -27 -9 -16 1 -34 -3 -42 -9 -12 -9 -13 -8 -7 3 7 10 3 12 -14 6
-15 -5 -20 -4 -16 4 4 6 2 11 -3 11 -6 0 -11 -5 -11 -11 0 -6 -7 -3 -16 5 -18
19 -28 21 -18 4 5 -7 2 -9 -8 -5 -9 3 -19 3 -22 -1 -14 -14 -37 -9 -51 11 -14
20 -15 20 -15 2 0 -13 -3 -16 -11 -8 -12 12 -61 5 -53 -8 3 -5 3 -9 -1 -9 -3
0 -10 10 -15 23 -7 18 -9 19 -9 3 -1 -17 -3 -17 -24 -3 -15 9 -29 12 -37 7 -8
-5 -22 -4 -32 1 -11 6 -18 6 -18 0 0 -11 -18 -9 -47 7 -16 9 -24 9 -29 0 -4
-6 -3 -8 2 -5 6 3 16 1 24 -4 11 -7 8 -8 -10 -5 -14 3 -25 5 -25 6 0 1 -13 4
-28 6 -21 4 -27 2 -21 -7 5 -8 3 -9 -7 -3 -30 18 -111 25 -121 10 -5 -7 -8 -7
-8 1 0 9 -7 10 -24 3 -22 -8 -24 -6 -21 11 3 15 1 18 -8 11 -7 -5 -22 -8 -34
-6 -13 2 -23 -1 -23 -8 0 -9 -3 -9 -12 0 -7 7 -25 12 -41 12 -20 0 -26 4 -21
13 6 9 4 9 -7 1 -18 -15 -79 -16 -79 -2 0 6 -7 5 -17 -3 -11 -10 -14 -10 -9
-1 4 7 1 12 -8 12 -9 0 -16 -6 -16 -12 0 -9 -4 -8 -10 2 -5 8 -10 11 -10 6 0
-5 -8 -2 -17 5 -15 12 -16 12 -10 -5 7 -17 6 -17 -9 -5 -10 8 -26 13 -36 11
-11 -2 -27 2 -36 10 -11 9 -14 10 -8 1 4 -7 2 -13 -3 -13 -6 0 -11 6 -11 13 0
8 -4 7 -10 -3 -9 -13 -14 -8 -11 12 0 3 -13 3 -29 -2 -17 -5 -30 -5 -30 0 0 4
-9 6 -20 3 -11 -3 -20 -1 -20 5 0 15 -33 9 -48 -8 -7 -8 -12 -10 -11 -5 3 23
-2 27 -18 14 -9 -8 -14 -9 -11 -4 4 6 -2 17 -14 24 -11 7 -17 8 -13 2 3 -6 -1
-11 -10 -11 -10 0 -13 5 -9 13 5 8 2 8 -9 -2 -9 -7 -17 -9 -17 -4 0 6 -12 9
-27 9 -16 -1 -36 5 -46 13 -14 12 -20 12 -26 3 -5 -9 -16 -7 -44 7 -39 20 -48
17 -19 -6 13 -10 9 -10 -15 1 -17 9 -38 13 -46 10 -7 -2 -19 2 -26 10 -7 8
-23 13 -37 10 -13 -2 -24 0 -24 6 0 7 -7 7 -21 -1 -15 -8 -19 -8 -15 0 5 7 -2
11 -18 11 -13 0 -27 6 -29 13 -4 9 -8 8 -16 -3 -8 -11 -11 -12 -11 -2 0 7 -4
11 -9 8 -5 -3 -12 1 -15 9 -4 13 -10 14 -26 5 -11 -6 -20 -7 -20 -2 0 4 -10 8
-22 9 -11 1 -24 7 -28 14 -6 8 -9 8 -13 -2 -4 -11 -6 -11 -6 -1 -1 7 -5 10
-11 7 -5 -3 -10 -1 -10 5 0 7 -7 10 -15 6 -8 -3 -19 2 -24 12 -8 13 -10 13
-11 3 0 -11 -4 -9 -15 5 -15 19 -15 19 -9 -1 5 -18 4 -18 -6 -2 -6 9 -20 17
-31 17 -11 0 -22 6 -25 14 -3 8 -13 12 -26 8 -16 -4 -19 -2 -13 8 6 10 4 12
-8 7 -10 -3 -17 -2 -17 4 0 6 -5 7 -10 4 -6 -3 -10 -1 -10 4 0 6 -7 11 -15 11
-8 0 -15 5 -15 10 0 6 -7 10 -16 10 -9 0 -12 5 -8 13 5 8 2 8 -9 -2 -10 -8
-17 -9 -17 -3 0 6 -9 13 -20 17 -11 3 -19 9 -19 13 3 20 -2 25 -11 12 -8 -13
-10 -12 -10 3 0 10 -4 15 -10 12 -5 -3 -10 1 -10 10 0 9 -4 13 -10 10 -5 -3
-10 -1 -10 5 0 6 -4 8 -10 5 -5 -3 -10 1 -10 9 0 9 -7 16 -15 16 -9 0 -18 7
-21 15 -4 8 -11 12 -18 8 -6 -4 -4 2 4 12 9 11 10 16 3 11 -8 -4 -13 -2 -13 4
0 6 -4 8 -10 5 -5 -3 -10 1 -10 9 0 9 -4 16 -10 16 -5 0 -10 6 -10 13 0 6 -10
23 -21 37 -11 14 -18 18 -14 10 4 -8 -1 -6 -10 5 -9 11 -14 28 -11 38 4 16 2
16 -12 5 -9 -7 -14 -9 -10 -4 4 5 1 21 -7 36 -8 15 -11 31 -7 35 4 5 2 5 -4 2
-10 -6 -22 17 -30 58 -1 6 -3 13 -4 18 -4 12 -7 27 -9 38 0 5 -5 8 -9 5 -4 -2
-8 3 -9 12 -3 48 -8 72 -16 72 -5 0 -3 8 4 17 8 9 9 14 3 10 -8 -4 -13 5 -16
28 -2 20 0 35 7 35 5 0 2 5 -8 11 -9 6 -15 14 -12 20 11 17 14 50 4 44 -8 -6
-14 36 -10 78 1 9 -2 17 -7 17 -11 0 -11 18 1 36 4 7 0 17 -9 24 -12 11 -12
15 -2 22 10 8 10 11 1 15 -7 2 -13 9 -13 14 0 6 6 7 13 2 6 -4 4 6 -7 21 -10
16 -14 26 -8 22 5 -3 12 3 15 13 3 15 1 18 -12 14 -14 -4 -14 -3 -1 9 9 8 14
27 12 48 -1 19 -3 43 -3 53 0 9 -6 17 -12 17 -7 0 -6 4 3 10 13 9 13 11 0 20
-13 9 -13 10 0 10 12 0 13 2 1 9 -11 7 -11 9 0 14 10 4 10 6 2 6 -7 1 -13 8
-13 16 0 8 6 15 13 15 9 0 8 3 -2 9 -9 6 -10 11 -2 15 6 4 11 12 11 17 0 6 -6
7 -12 3 -10 -6 -10 -4 0 8 10 13 10 17 0 21 -8 3 -5 6 7 7 19 1 19 1 1 11 -15
9 -16 13 -5 20 12 7 12 9 0 9 -11 0 -11 3 0 17 10 11 10 14 2 9 -7 -4 -13 -3
-13 3 0 5 6 12 13 14 8 4 7 6 -3 6 -11 1 -15 10 -14 29 1 15 3 37 3 49 1 17 5
21 18 16 15 -6 16 -5 3 9 -8 9 -19 14 -25 11 -5 -2 -1 3 9 11 13 10 15 16 7
16 -11 0 -11 3 0 17 10 11 10 14 2 9 -9 -5 -13 2 -14 26 -1 18 -2 52 -3 75 -2
23 1 40 5 37 4 -2 10 0 14 6 3 5 2 10 -2 10 -5 0 -10 10 -10 23 -1 12 -3 39
-5 60 -2 24 1 37 9 37 6 0 15 5 19 12 4 7 3 8 -4 4 -22 -13 -34 5 -17 24 11
12 13 20 6 25 -6 3 -11 11 -11 16 0 6 4 8 8 5 5 -3 9 1 9 9 0 8 -4 12 -8 10
-4 -3 -10 2 -13 11 -3 8 -2 13 3 10 5 -3 12 1 15 10 4 9 2 13 -5 8 -7 -4 -10
-1 -7 7 3 8 10 13 16 12 6 -2 9 4 6 12 -4 8 -11 12 -18 8 -6 -4 -5 1 3 10 7 9
10 17 5 17 -5 0 0 8 11 16 19 16 19 16 -5 10 l-25 -7 23 20 c13 11 18 22 12
26 -5 3 -10 1 -10 -5 0 -6 -5 -8 -11 -4 -8 4 -7 9 2 15 8 4 15 22 15 39 2 47
3 52 13 45 5 -3 13 0 17 6 4 8 3 9 -4 5 -8 -5 -12 0 -12 13 0 29 3 37 15 33 5
-2 7 0 3 4 -4 4 -2 14 5 22 8 11 8 14 0 9 -6 -4 -14 -3 -18 3 -3 5 -1 10 5 10
7 0 7 7 -1 23 -12 21 -11 21 6 7 17 -14 17 -14 7 7 -9 16 -9 24 0 29 7 5 8 3
3 -7 -5 -8 -4 -10 0 -6 13 11 15 37 3 37 -6 0 -1 9 12 20 13 11 19 20 14 20
-6 0 -16 -6 -23 -12 -11 -11 -12 -10 -6 2 4 8 15 24 24 34 9 11 11 16 4 13 -6
-4 -15 -2 -19 4 -4 8 -3 9 4 5 7 -4 12 -2 12 4 0 6 4 9 9 6 5 -4 8 2 6 11 -1
10 2 23 7 30 5 7 8 16 5 20 -6 11 19 34 27 25 4 -3 4 2 0 12 -6 15 -4 17 7 11
12 -7 12 -6 1 7 -15 18 -1 34 21 23 6 -4 3 1 -7 9 -11 9 -15 17 -8 17 26 3 31
4 39 12 4 5 2 7 -6 5 -7 -1 -16 3 -19 11 -3 9 0 11 8 6 10 -6 12 -3 6 10 -5
15 -4 16 9 5 9 -7 18 -10 22 -6 3 3 1 6 -5 6 -7 0 -12 7 -12 16 0 9 5 12 12 8
8 -5 9 -2 5 10 -6 14 -3 16 16 11 12 -3 18 -3 12 2 -18 15 -16 35 5 40 11 3
20 12 20 19 0 8 5 14 11 14 5 0 7 5 3 12 -4 7 -3 8 4 4 7 -4 12 -2 12 3 0 6 5
11 11 11 5 0 7 -5 3 -12 -4 -7 -3 -8 5 -4 9 6 9 11 0 22 -7 9 -8 14 -3 13 5
-1 15 -1 23 0 11 1 11 4 0 18 -13 15 -12 15 10 4 15 -8 21 -9 17 -2 -4 6 -2
11 3 11 6 0 10 6 9 13 -2 7 8 12 24 12 21 -1 25 2 16 12 -8 11 -7 12 7 7 14
-6 16 -4 10 6 -6 10 -4 12 8 7 13 -5 17 -1 17 15 0 21 0 21 15 2 15 -19 15
-19 8 0 -5 15 -3 18 10 13 10 -4 14 -2 11 7 -3 7 7 18 22 25 21 9 30 9 42 -1
13 -11 14 -11 7 1 -6 11 -4 13 10 7 16 -6 16 -4 4 11 -8 9 -9 14 -3 10 7 -4
14 0 18 8 3 8 12 12 20 9 8 -3 17 -1 21 5 4 8 12 8 26 1 15 -9 19 -7 19 5 0 9
5 13 10 10 6 -3 13 1 16 9 5 12 10 13 25 5 11 -5 19 -6 19 -1 0 5 11 10 25 10
15 0 22 -5 19 -12 -3 -6 4 0 16 14 l21 25 -5 -25 c-3 -14 -3 -19 0 -12 3 6 11
9 16 6 7 -4 8 -2 4 5 -5 7 3 13 23 17 17 4 28 10 25 15 -3 5 9 7 25 5 17 -2
31 1 31 7 0 5 7 4 16 -3 12 -11 15 -11 12 0 -2 7 9 14 27 17 23 2 26 1 15 -7
-19 -12 -6 -13 18 -1 29 15 102 29 102 20 0 -5 10 -9 23 -8 21 0 21 1 2 10
-16 8 -15 8 8 4 21 -4 27 -2 21 6 -5 8 -3 9 5 5 9 -6 9 -12 -3 -25 -14 -15
-14 -18 -1 -18 8 0 12 4 9 9 -3 4 -2 9 3 10 10 2 50 6 83 9 14 1 31 7 39 13
11 8 13 8 7 -2 -6 -10 -1 -11 20 -6 21 5 25 4 20 -7 -4 -8 1 -3 12 10 14 18
21 21 27 11 6 -9 4 -11 -5 -5 -9 5 -11 4 -6 -3 5 -9 13 -9 27 -2 18 10 23 6
20 -12 -2 -15 11 -8 29 14 l17 22 14 -21 c12 -20 14 -20 26 -5 11 16 12 15 13
-3 0 -14 3 -16 8 -8 5 7 20 14 35 15 15 1 27 7 27 13 0 5 5 3 10 -5 8 -13 11
-13 19 -1 7 11 10 9 16 -9 5 -16 9 -19 15 -10 4 7 15 10 25 7 11 -5 14 -3 9 6
-4 6 2 4 13 -6 21 -18 22 -18 31 0 6 10 13 17 16 16 3 -2 7 -3 9 -2 28 8 38 6
32 -9 -3 -9 -3 -13 1 -10 4 4 16 3 28 -3 18 -9 19 -8 5 3 -14 12 -7 13 50 10
118 -6 126 -7 140 -16 11 -7 13 -5 7 10 -5 15 -4 16 5 7 6 -6 19 -9 28 -5 14
5 14 4 2 -14 -14 -18 -14 -18 4 -2 17 16 19 16 33 0 11 -14 13 -14 9 -1 -3 9
1 16 9 16 7 0 11 -4 8 -9 -3 -4 4 -8 16 -8 14 0 19 4 14 13 -5 8 -3 8 9 -2 9
-7 27 -11 39 -8 13 4 29 0 40 -10 12 -11 22 -13 30 -6 7 6 23 13 36 16 20 5
22 3 10 -11 -7 -9 -9 -14 -4 -10 5 4 22 0 38 -8 28 -15 30 -14 35 6 5 17 8 19
15 8 8 -10 11 -10 15 0 7 18 23 4 16 -15 -4 -11 -3 -14 5 -9 7 4 12 13 12 21
0 8 4 17 10 20 5 3 7 0 4 -8 -3 -8 0 -18 7 -23 8 -5 10 -3 4 6 -6 9 -1 8 14
-3 22 -15 56 -13 46 3 -2 4 7 5 20 2 14 -2 25 -7 25 -11 0 -9 52 -7 68 2 6 5
12 4 12 -2 0 -5 -8 -15 -17 -20 -10 -6 -13 -11 -7 -11 6 0 17 7 24 15 9 10 17
12 30 5 9 -5 20 -7 22 -4 3 2 17 0 32 -6 18 -6 25 -6 21 0 -3 6 1 10 9 10 8 0
17 -8 19 -17 4 -17 5 -17 6 0 0 10 5 16 11 12 5 -3 7 -13 4 -23 -5 -13 -4 -14
4 -3 6 8 17 11 27 8 11 -5 14 -3 9 5 -5 8 -2 9 11 4 11 -4 22 -2 27 6 6 10 8
10 8 1 0 -7 7 -13 16 -13 8 0 13 -4 10 -8 -3 -4 7 -8 22 -8 17 1 26 -4 24 -12
-1 -8 2 -11 8 -7 8 5 7 11 -1 21 -8 10 -8 14 0 14 17 0 26 -4 24 -12 -1 -3 5
-9 13 -12 12 -5 15 -2 10 11 -5 13 0 11 21 -7 15 -14 21 -17 14 -7 -17 21 -4
22 20 1 16 -15 17 -14 12 5 -3 13 -1 21 6 21 7 0 10 -4 7 -8 -2 -4 -1 -14 5
-22 6 -10 9 -11 9 -2 0 6 5 12 11 12 5 0 8 -4 4 -9 -3 -5 -1 -13 5 -16 6 -4 9
-1 8 6 -2 6 3 14 11 17 10 3 11 0 5 -9 -7 -12 -5 -12 9 0 14 11 17 11 17 0 0
-11 2 -11 10 1 9 13 10 13 10 0 0 -13 1 -13 10 0 7 11 10 11 10 2 0 -7 10 -12
23 -11 12 1 31 1 42 0 16 -1 17 -3 6 -10 -10 -7 -7 -9 12 -8 19 2 23 5 15 15
-8 9 -7 11 6 6 9 -3 16 -11 16 -18 0 -7 3 -6 9 2 6 11 10 10 15 -4 6 -15 8
-15 24 -2 19 16 30 17 50 5 6 -5 12 -6 12 -2 0 3 9 1 21 -5 17 -10 18 -14 7
-28 -12 -15 -11 -16 4 -3 10 7 15 18 11 25 -3 6 4 2 17 -9 13 -11 20 -15 17
-9 -4 7 0 14 7 17 11 4 14 0 11 -16 -4 -20 -3 -21 9 -5 7 10 16 15 20 11 4 -4
11 -1 16 7 8 12 10 11 10 -6 0 -19 5 -22 33 -20 18 1 39 6 47 11 9 5 11 4 6
-4 -8 -12 33 -9 55 5 8 5 9 3 4 -6 -6 -10 -3 -12 13 -8 23 6 31 -7 10 -15 -10
-4 -10 -6 0 -6 7 -1 15 6 18 14 8 21 32 19 37 -2 4 -17 5 -17 6 0 0 9 6 17 12
17 5 0 7 -4 4 -10 -3 -6 1 -7 9 -4 9 3 13 10 10 15 -3 5 3 6 12 2 11 -4 15 -3
11 4 -5 7 0 9 13 6 15 -4 19 -2 14 10 -4 13 -1 15 18 12 22 -4 22 -4 4 10 -11
8 -14 15 -8 15 7 0 12 13 12 28 0 15 6 34 13 41 8 10 8 12 0 7 -6 -3 -14 -2
-18 4 -3 5 -1 10 5 10 6 0 8 5 5 10 -4 6 -12 7 -18 3 -9 -5 -9 -3 0 8 10 12 7
18 -13 34 -15 11 -23 24 -19 33 5 13 3 13 -12 1 -11 -9 -14 -10 -9 -1 4 7 2
12 -4 12 -6 0 -8 5 -5 10 3 6 1 10 -5 10 -6 0 -8 5 -5 10 3 6 -1 10 -10 10
-12 0 -15 5 -11 17 4 10 4 14 0 11 -8 -8 -34 16 -34 32 0 6 -4 8 -10 5 -5 -3
-10 -1 -10 5 0 6 -5 8 -12 4 -7 -4 -8 -3 -4 4 4 6 -7 23 -24 39 -17 15 -29 32
-26 39 3 8 -2 11 -15 9 -12 -2 -19 2 -19 11 0 19 -25 45 -35 36 -4 -4 -6 -2
-4 3 5 21 -23 63 -39 58 -10 -4 -13 -2 -8 5 4 6 -5 18 -19 28 -15 10 -24 23
-21 31 3 8 1 11 -4 8 -6 -3 -10 -1 -10 4 0 6 -7 11 -15 11 -8 0 -15 5 -15 11
0 5 5 7 12 3 7 -5 8 -3 4 5 -5 7 -14 10 -22 7 -7 -3 -16 0 -20 6 -4 7 -3 8 4
4 7 -4 12 -2 12 3 0 6 -10 11 -22 11 -16 0 -19 3 -10 9 10 6 7 12 -13 25 -14
9 -23 21 -20 27 4 5 3 9 -2 8 -4 -1 -15 -1 -23 0 -13 1 -13 2 0 11 13 8 12 10
-4 10 -12 0 -16 5 -12 16 3 8 2 13 -2 10 -5 -3 -14 4 -22 14 -8 10 -17 17 -22
14 -4 -3 -8 7 -8 23 0 22 -2 25 -10 13 -7 -11 -10 -11 -10 -2 0 7 -4 10 -10 7
-5 -3 -10 3 -10 14 0 12 -6 20 -12 19 -8 -2 -12 5 -10 15 2 9 -1 17 -5 16 -4
-1 -15 -1 -23 0 -13 1 -13 2 0 11 12 8 10 10 -8 10 -13 0 -20 4 -17 10 3 6 1
10 -5 10 -6 0 -8 5 -4 13 5 8 2 7 -9 -2 -15 -12 -17 -12 -11 4 6 14 4 16 -6
10 -10 -6 -12 -4 -7 8 3 9 1 19 -5 23 -7 4 -8 3 -4 -4 4 -7 2 -12 -3 -12 -6 0
-11 7 -11 15 0 9 -11 20 -24 25 -27 10 -49 43 -38 55 4 5 -1 5 -10 2 -12 -4
-18 -1 -18 8 0 8 -5 15 -11 15 -5 0 -7 6 -3 13 5 8 2 8 -9 -2 -15 -12 -17 -11
-17 8 0 12 -4 19 -10 16 -5 -3 -15 5 -22 19 -6 14 -17 26 -25 26 -7 0 -13 5
-13 11 0 5 -5 7 -10 4 -6 -4 -10 -3 -9 2 4 20 -2 34 -12 28 -5 -4 -18 3 -28
14 -10 12 -22 21 -25 21 -12 0 -36 27 -36 40 0 6 -4 8 -10 5 -5 -3 -10 1 -10
9 0 9 -3 15 -7 14 -13 -4 -53 26 -53 39 0 7 -7 13 -16 13 -8 0 -12 5 -9 10 3
6 -3 10 -15 10 -12 0 -18 5 -15 10 3 6 -1 10 -9 10 -9 0 -16 5 -16 10 0 6 -6
10 -14 10 -8 0 -17 7 -20 16 -4 9 -13 14 -22 10 -8 -3 -12 -2 -9 4 3 6 -1 10
-9 10 -9 0 -13 6 -10 14 4 10 -1 14 -19 12 -20 -2 -23 1 -19 17 3 14 1 18 -6
13 -7 -4 -12 -2 -12 4 0 6 -4 8 -10 5 -5 -3 -10 -1 -10 4 0 6 -5 11 -11 11 -7
0 -20 9 -30 21 -11 12 -23 18 -30 13 -9 -5 -10 -2 -6 10 4 10 3 15 -3 11 -6
-3 -13 1 -16 10 -6 13 -8 14 -15 3 -7 -10 -9 -10 -9 0 0 7 -8 12 -17 10 -10
-2 -18 3 -18 12 -1 8 -6 14 -13 12 -7 -1 -12 2 -12 8 0 5 -7 10 -15 10 -8 0
-15 5 -15 10 0 6 -7 10 -16 10 -8 0 -12 4 -9 10 3 6 -1 7 -9 4 -10 -4 -16 -1
-16 7 0 7 -3 10 -6 6 -4 -3 -13 1 -21 9 -8 8 -20 11 -26 7 -7 -4 -7 -1 1 9 11
14 10 16 -7 11 -14 -3 -21 -1 -21 8 0 11 -2 11 -10 -1 -7 -11 -10 -11 -10 -2
0 7 -5 10 -12 6 -6 -4 -8 -3 -5 3 4 6 -1 17 -10 24 -14 12 -16 12 -9 -1 4 -8
1 -7 -7 3 -11 14 -16 15 -20 5 -4 -9 -6 -7 -6 4 -1 11 -6 15 -16 12 -8 -4 -15
-1 -15 6 0 6 -4 8 -10 5 -5 -3 -10 -1 -10 4 0 6 -6 10 -12 9 -7 -2 -12 2 -11
8 1 8 -6 10 -19 6 -14 -3 -19 -1 -14 6 4 8 2 10 -7 6 -8 -3 -18 0 -22 5 -3 6
-11 8 -17 5 -7 -5 -9 -2 -5 8 4 12 1 14 -15 10 -15 -4 -19 -2 -13 7 6 10 3 11
-14 2 -12 -7 -21 -8 -20 -4 1 4 1 15 0 23 -1 13 -2 13 -11 0 -6 -10 -10 -11
-10 -2 0 6 -5 12 -11 12 -5 0 -7 -6 -4 -12 4 -7 0 -5 -9 6 -8 10 -21 16 -28
14 -7 -3 -19 2 -26 11 -8 9 -11 10 -7 4 4 -9 1 -11 -9 -7 -9 3 -16 10 -16 16
0 5 -4 7 -9 3 -5 -3 -12 -1 -16 5 -4 6 -11 8 -16 5 -5 -4 -9 -1 -9 6 0 10 -3
10 -11 2 -8 -8 -16 -7 -30 5 -19 17 -27 19 -81 25 -15 1 -33 8 -39 14 -6 6
-18 9 -26 6 -8 -3 -18 -1 -22 6 -4 6 -21 13 -38 14 -17 1 -29 5 -27 9 3 4 -9
6 -26 4 -22 -2 -30 0 -26 9 3 9 -6 11 -32 8 -25 -3 -32 -1 -24 5 10 7 7 11
-12 14 -14 3 -23 2 -20 -3 2 -4 -5 -7 -16 -6 -13 1 -19 6 -15 16 4 11 3 12
-10 1 -12 -10 -15 -10 -15 1 0 11 -2 11 -10 -1 -8 -13 -10 -12 -10 3 0 17 -1
17 -16 3 -8 -9 -20 -14 -25 -11 -14 9 -11 17 4 9 6 -4 8 -3 4 2 -12 13 -61 13
-69 0 -5 -8 -8 -7 -8 2 0 7 -4 11 -9 7 -5 -3 -13 0 -17 6 -5 8 -3 9 6 4 9 -5
11 -4 6 4 -4 6 -12 9 -17 5 -15 -9 -59 -12 -59 -4 0 3 -21 7 -47 9 -26 1 -50
4 -54 7 -4 2 -10 -2 -12 -8 -3 -7 -6 -4 -6 7 -1 17 -3 17 -11 5 -8 -12 -10
-12 -10 -1 0 10 -3 11 -13 2 -10 -8 -17 -7 -25 1 -8 8 -15 8 -26 -1 -12 -10
-16 -9 -25 6 -10 17 -10 17 -11 -1 0 -20 0 -20 -16 0 -8 10 -12 12 -8 4 7 -13
6 -13 -11 0 -14 11 -19 12 -22 2 -3 -6 -10 -9 -16 -5 -17 10 -47 11 -47 2 0
-5 -11 -4 -24 1 -17 6 -26 5 -30 -3 -2 -7 -5 -4 -5 6 -1 9 -6 17 -12 17 -5 0
-7 -5 -3 -11 5 -8 1 -8 -14 0 -15 8 -23 8 -27 0 -4 -5 -12 -8 -18 -6 -7 2 -20
0 -31 -5 -13 -7 -16 -7 -12 1 4 6 3 11 -3 11 -5 0 -13 -5 -16 -10 -5 -8 -11
-7 -21 1 -8 6 -14 8 -14 3 0 -5 -5 -2 -10 6 -9 13 -10 13 -10 0 0 -13 -1 -13
-10 0 -5 8 -10 10 -10 5 0 -6 -20 -11 -45 -10 -25 0 -45 -2 -45 -6 0 -3 -10
-5 -22 -4 -13 1 -29 -3 -37 -9 -17 -14 -15 -14 -34 3 -12 10 -17 10 -17 2 0
-8 -6 -7 -16 3 -20 21 -28 20 -20 -1 6 -15 4 -15 -14 2 -11 10 -20 13 -20 7 0
-7 -7 -9 -17 -5 -12 5 -14 3 -8 -8 7 -11 6 -12 -6 -4 -15 11 -35 12 -59 2 -8
-4 -40 -9 -70 -12 -30 -4 -71 -9 -90 -11 -19 -3 -45 -5 -57 -5 -13 1 -23 -5
-23 -12 0 -9 -3 -8 -9 2 -6 9 -11 10 -15 2 -4 -6 -12 -11 -17 -11 -6 0 -8 4
-5 9 4 5 -5 4 -19 -2 -14 -7 -25 -15 -25 -19 0 -5 -5 -8 -11 -8 -5 0 -8 4 -5
9 4 5 -5 4 -18 -2 -13 -7 -22 -15 -20 -18 2 -4 -10 -6 -27 -5 -16 1 -32 -1
-35 -5 -2 -4 -12 -6 -22 -5 -9 2 -20 -2 -24 -8 -6 -8 -11 -6 -19 4 -8 11 -12
12 -16 3 -2 -7 -13 -13 -24 -13 -11 0 -31 -7 -45 -17 -14 -9 -44 -18 -67 -20
-23 -2 -48 -12 -56 -21 -13 -16 -13 -16 -8 1 6 15 4 16 -13 7 -11 -6 -26 -8
-33 -4 -7 5 -7 2 2 -9 12 -15 12 -17 -3 -11 -9 3 -16 1 -16 -4 0 -6 -9 -9 -20
-7 -11 2 -22 -1 -25 -6 -4 -5 -10 -7 -15 -4 -5 3 -16 -2 -24 -11 -9 -8 -16
-11 -16 -5 0 6 -5 11 -10 11 -6 0 -9 -5 -8 -12 2 -7 -8 -13 -24 -13 -15 0 -31
-5 -35 -9 -5 -5 -2 -6 6 -1 10 6 12 4 7 -4 -6 -9 -11 -9 -21 -1 -10 8 -15 8
-21 -1 -5 -8 -3 -10 7 -4 11 6 12 5 2 -5 -7 -7 -24 -15 -40 -16 -15 -2 -39
-12 -55 -24 -24 -18 -27 -18 -22 -3 5 17 5 17 -5 1 -13 -20 -74 -53 -65 -35 3
7 -4 1 -15 -13 -11 -14 -21 -20 -21 -13 0 7 -7 10 -15 7 -8 -4 -13 -10 -10
-14 3 -5 1 -11 -5 -15 -5 -3 -10 -1 -10 6 0 6 -9 1 -21 -12 -11 -13 -18 -18
-14 -12 4 9 1 11 -9 7 -9 -3 -16 -12 -16 -20 0 -8 -6 -11 -15 -8 -8 4 -15 1
-15 -4 0 -11 -38 -28 -52 -24 -5 1 -8 -3 -8 -9 0 -6 -7 -8 -16 -5 -15 6 -15 4
-3 -10 13 -16 12 -16 -8 -5 -19 10 -22 9 -17 -4 4 -10 2 -15 -7 -13 -7 2 -13
-3 -14 -11 0 -8 -7 -16 -15 -18 -13 -4 -13 -3 0 6 8 6 10 11 4 11 -6 0 -23
-11 -37 -24 -25 -24 -26 -24 -47 -4 -22 21 -132 234 -145 283 -5 17 -9 32 -10
35 -1 3 -5 19 -9 35 -4 17 -10 37 -13 45 -4 8 -7 17 -8 20 -19 57 -67 150 -77
150 -5 0 -8 5 -8 10 0 10 -51 70 -95 112 -11 10 -54 40 -95 65 -83 51 -220
144 -253 173 -12 10 -42 35 -67 55 -202 164 -347 371 -471 670 -68 162 -98
225 -109 225 -5 0 -11 8 -14 18 -9 26 -77 96 -132 134 -27 19 -99 60 -160 92
-62 31 -123 67 -135 80 -13 12 -44 36 -69 53 -69 47 -221 199 -283 285 -73
100 -131 153 -222 205 -78 43 -117 58 -175 67 -116 18 -421 105 -445 127 -5 5
-15 9 -23 9 -20 0 -165 75 -235 121 -136 92 -311 251 -441 404 -60 70 -166
140 -259 172 -72 24 -85 26 -192 38 -33 3 -73 9 -90 12 -16 4 -33 6 -37 5 -4
-1 -28 7 -53 18 -25 11 -48 19 -50 19 -18 -2 -79 18 -133 42 -34 16 -65 29
-67 29 -13 0 -142 67 -155 80 -31 31 -181 111 -235 125 -16 5 -32 9 -35 10
-13 4 -138 19 -160 19 -14 1 -47 -4 -75 -11 -27 -6 -86 -14 -130 -18 -44 -4
-89 -9 -100 -11 -30 -6 -308 -6 -325 0 -8 3 -40 7 -70 10 -70 7 -212 41 -250
61 -17 9 -31 15 -32 14 -5 -3 -51 11 -83 26 -16 7 -43 18 -60 25 -16 7 -41 19
-55 27 -14 8 -33 17 -43 20 -16 5 -69 33 -177 91 -42 23 -56 28 -114 38 -16 3
-39 9 -50 13 -44 17 -248 1 -291 -22 -11 -6 -21 -9 -23 -8 -2 2 -59 -8 -97
-16 -11 -3 -101 -6 -200 -7 -171 -2 -238 5 -370 39 -54 14 -76 16 -155 19 -57
2 -111 -3 -164 -16z m11292 -5833 c-3 -3 -9 2 -12 12 -6 14 -5 15 5 6 7 -7 10
-15 7 -18z m537 -15 c3 -5 1 -10 -4 -10 -6 0 -11 5 -11 10 0 6 2 10 4 10 3 0
8 -4 11 -10z m101 -10 c5 1 10 -4 12 -10 3 -9 -1 -9 -17 -1 -11 7 -21 17 -21
24 0 8 3 8 9 -1 4 -8 12 -13 17 -12z m-19561 -50 c3 -5 1 -10 -4 -10 -6 0 -11
5 -11 10 0 6 2 10 4 10 3 0 8 -4 11 -10z m-4563 -632 c-7 -7 -12 -8 -12 -2 0
14 12 26 19 19 2 -3 -1 -11 -7 -17z m21775 -204 c-3 -3 -12 -4 -19 -1 -8 3 -5
6 6 6 11 1 17 -2 13 -5z m-21942 -924 c3 -6 -1 -7 -9 -4 -18 7 -21 14 -7 14 6
0 13 -4 16 -10z m3172 -962 c-3 -8 -6 -5 -6 6 -1 11 2 17 5 13 3 -3 4 -12 1
-19z m18948 -188 c3 -5 1 -10 -4 -10 -6 0 -11 5 -11 10 0 6 2 10 4 10 3 0 8
-4 11 -10z m1032 -482 c-3 -8 -6 -5 -6 6 -1 11 2 17 5 13 3 -3 4 -12 1 -19z
m-24432 -2798 c3 -5 1 -10 -4 -10 -6 0 -11 5 -11 10 0 6 2 10 4 10 3 0 8 -4
11 -10z m155 -186 c0 -8 -19 -13 -24 -6 -3 5 1 9 9 9 8 0 15 -2 15 -3z m6120
-1208 c0 -3 -4 -8 -10 -11 -5 -3 -10 -1 -10 4 0 6 5 11 10 11 6 0 10 -2 10 -4z
m-4560 -162 c0 -8 -19 -13 -24 -6 -3 5 1 9 9 9 8 0 15 -2 15 -3z m180 -106 c0
-6 -6 -5 -15 2 -8 7 -15 14 -15 16 0 2 7 1 15 -2 8 -4 15 -11 15 -16z m3020
-317 c0 -6 -4 -13 -10 -16 -5 -3 -10 1 -10 9 0 9 5 16 10 16 6 0 10 -4 10 -9z
m-1640 -61 c0 -5 -2 -10 -4 -10 -3 0 -8 5 -11 10 -3 6 -1 10 4 10 6 0 11 -4
11 -10z"/>
<path d="M23025 18440 c-3 -6 1 -7 9 -4 18 7 21 14 7 14 -6 0 -13 -4 -16 -10z"/>
<path d="M25173 18435 c0 -8 4 -12 9 -9 5 3 6 10 3 15 -9 13 -12 11 -12 -6z"/>
<path d="M26415 17740 c3 -5 8 -10 11 -10 2 0 4 5 4 10 0 6 -5 10 -11 10 -5 0
-7 -4 -4 -10z"/>
<path d="M26740 17441 c0 -6 4 -13 10 -16 6 -3 7 1 4 9 -7 18 -14 21 -14 7z"/>
<path d="M27366 16758 c3 -5 10 -6 15 -3 13 9 11 12 -6 12 -8 0 -12 -4 -9 -9z"/>
<path d="M25090 16504 c0 -8 5 -12 10 -9 6 4 8 11 5 16 -9 14 -15 11 -15 -7z"/>
<path d="M25380 16505 c-7 -9 -8 -15 -2 -15 5 0 12 7 16 15 3 8 4 15 2 15 -2
0 -9 -7 -16 -15z"/>
<path d="M24710 16486 c0 -2 7 -7 16 -10 8 -3 12 -2 9 4 -6 10 -25 14 -25 6z"/>
<path d="M24650 16460 c0 -5 5 -10 11 -10 5 0 7 5 4 10 -3 6 -8 10 -11 10 -2
0 -4 -4 -4 -10z"/>
<path d="M24310 16401 c0 -6 4 -12 8 -15 5 -3 9 1 9 9 0 8 -4 15 -9 15 -4 0
-8 -4 -8 -9z"/>
<path d="M24230 16375 c-11 -13 -15 -13 -21 -3 -6 9 -9 9 -9 1 0 -19 17 -24
30 -8 7 8 17 12 23 8 6 -3 7 -1 3 5 -9 15 -11 15 -26 -3z"/>
<path d="M26880 16380 c-9 -6 -10 -10 -3 -10 6 0 15 5 18 10 8 12 4 12 -15 0z"/>
<path d="M27076 16353 c-6 -14 -5 -15 5 -6 7 7 10 15 7 18 -3 3 -9 -2 -12 -12z"/>
<path d="M24110 16320 c0 -5 5 -10 10 -10 6 0 10 5 10 10 0 6 -4 10 -10 10 -5
0 -10 -4 -10 -10z"/>
<path d="M27346 16322 c-3 -5 1 -9 9 -9 8 0 15 4 15 9 0 4 -4 8 -9 8 -6 0 -12
-4 -15 -8z"/>
<path d="M2613 16205 c0 -8 4 -12 9 -9 5 3 6 10 3 15 -9 13 -12 11 -12 -6z"/>
<path d="M586 14758 c3 -5 10 -6 15 -3 13 9 11 12 -6 12 -8 0 -12 -4 -9 -9z"/>
<path d="M1375 14670 c-3 -5 -1 -10 4 -10 6 0 11 5 11 10 0 6 -2 10 -4 10 -3
0 -8 -4 -11 -10z"/>
<path d="M1411 14673 c-1 -17 16 -25 25 -12 4 7 3 9 -4 5 -5 -3 -13 0 -15 6
-4 9 -6 10 -6 1z"/>
<path d="M1830 14640 c6 -11 13 -20 16 -20 2 0 0 9 -6 20 -6 11 -13 20 -16 20
-2 0 0 -9 6 -20z"/>
<path d="M2070 14636 c0 -2 8 -10 18 -17 15 -13 16 -12 3 4 -13 16 -21 21 -21
13z"/>
<path d="M2150 14626 c0 -2 7 -7 16 -10 8 -3 12 -2 9 4 -6 10 -25 14 -25 6z"/>
<path d="M2279 14613 c-12 -16 -12 -17 2 -6 9 7 20 9 24 5 5 -4 5 -1 1 6 -9
16 -11 15 -27 -5z"/>
<path d="M2865 14569 c-3 -4 2 -6 10 -5 21 3 28 13 10 13 -9 0 -18 -4 -20 -8z"/>
<path d="M3070 14520 c0 -5 5 -10 11 -10 5 0 7 5 4 10 -3 6 -8 10 -11 10 -2 0
-4 -4 -4 -10z"/>
<path d="M3275 14520 c-3 -5 -1 -10 4 -10 6 0 11 5 11 10 0 6 -2 10 -4 10 -3
0 -8 -4 -11 -10z"/>
<path d="M3556 14458 c3 -5 10 -6 15 -3 13 9 11 12 -6 12 -8 0 -12 -4 -9 -9z"/>
<path d="M4073 14345 c0 -8 4 -12 9 -9 5 3 6 10 3 15 -9 13 -12 11 -12 -6z"/>
<path d="M4155 14310 c3 -5 8 -10 11 -10 2 0 4 5 4 10 0 6 -5 10 -11 10 -5 0
-7 -4 -4 -10z"/>
<path d="M4276 14272 c-3 -5 1 -9 9 -9 8 0 12 4 9 9 -3 4 -7 8 -9 8 -2 0 -6
-4 -9 -8z"/>
<path d="M4311 14244 c0 -11 3 -14 6 -6 3 7 2 16 -1 19 -3 4 -6 -2 -5 -13z"/>
<path d="M4897 13519 c7 -7 15 -10 18 -7 3 3 -2 9 -12 12 -14 6 -15 5 -6 -5z"/>
<path d="M4910 13459 c0 -5 5 -7 10 -4 6 3 10 8 10 11 0 2 -4 4 -10 4 -5 0
-10 -5 -10 -11z"/>
<path d="M4913 12745 c0 -8 4 -12 9 -9 5 3 6 10 3 15 -9 13 -12 11 -12 -6z"/>
<path d="M27165 12609 c-4 -6 -5 -12 -2 -15 2 -3 7 2 10 11 7 17 1 20 -8 4z"/>
<path d="M26785 12291 c-3 -5 -2 -12 3 -15 5 -3 9 1 9 9 0 17 -3 19 -12 6z"/>
<path d="M26547 12099 c7 -7 15 -10 18 -7 3 3 -2 9 -12 12 -14 6 -15 5 -6 -5z"/>
<path d="M26455 12040 c-3 -5 -1 -10 4 -10 6 0 11 5 11 10 0 6 -2 10 -4 10 -3
0 -8 -4 -11 -10z"/>
<path d="M26389 11993 c-13 -16 -12 -17 4 -4 9 7 17 15 17 17 0 8 -8 3 -21
-13z"/>
<path d="M25486 11533 c-6 -14 -5 -15 5 -6 7 7 10 15 7 18 -3 3 -9 -2 -12 -12z"/>
<path d="M25266 11442 c-3 -5 1 -9 9 -9 8 0 12 4 9 9 -3 4 -7 8 -9 8 -2 0 -6
-4 -9 -8z"/>
<path d="M25200 11430 c-9 -6 -10 -10 -3 -10 6 0 15 5 18 10 8 12 4 12 -15 0z"/>
<path d="M24966 11372 c-3 -5 1 -9 9 -9 8 0 12 4 9 9 -3 4 -7 8 -9 8 -2 0 -6
-4 -9 -8z"/>
<path d="M4767 11359 c7 -7 15 -10 18 -7 3 3 -2 9 -12 12 -14 6 -15 5 -6 -5z"/>
<path d="M24899 11343 c-13 -15 -12 -15 9 -4 23 12 28 21 13 21 -5 0 -15 -7
-22 -17z"/>
<path d="M24513 11245 c0 -8 4 -12 9 -9 5 3 6 10 3 15 -9 13 -12 11 -12 -6z"/>
<path d="M24473 11215 c0 -8 4 -12 9 -9 5 3 6 10 3 15 -9 13 -12 11 -12 -6z"/>
<path d="M24257 11203 c3 -7 6 -13 8 -13 2 0 5 6 8 13 3 8 -1 14 -8 14 -7 0
-11 -6 -8 -14z"/>
<path d="M22675 11190 c3 -5 8 -10 11 -10 2 0 4 5 4 10 0 6 -5 10 -11 10 -5 0
-7 -4 -4 -10z"/>
<path d="M22755 11170 c-4 -6 -11 -7 -17 -4 -7 4 -8 2 -4 -5 6 -8 12 -9 20 -2
7 6 17 7 21 3 5 -4 5 -1 1 6 -9 15 -13 15 -21 2z"/>
<path d="M23930 11161 c0 -6 4 -13 10 -16 6 -3 7 1 4 9 -7 18 -14 21 -14 7z"/>
<path d="M23036 11142 c-3 -5 1 -9 9 -9 8 0 12 4 9 9 -3 4 -7 8 -9 8 -2 0 -6
-4 -9 -8z"/>
<path d="M23116 11142 c-3 -5 1 -9 9 -9 8 0 12 4 9 9 -3 4 -7 8 -9 8 -2 0 -6
-4 -9 -8z"/>
<path d="M813 9711 c0 -11 5 -18 9 -15 4 3 5 11 1 19 -7 21 -12 19 -10 -4z"/>
<path d="M7399 9473 c-13 -16 -12 -17 4 -4 9 7 17 15 17 17 0 8 -8 3 -21 -13z"/>
<path d="M1030 9459 c0 -5 5 -7 10 -4 6 3 10 8 10 11 0 2 -4 4 -10 4 -5 0 -10
-5 -10 -11z"/>
<path d="M1595 8989 c-4 -5 -4 -13 -1 -16 3 -4 6 0 6 8 0 11 2 11 10 -1 6 -9
10 -10 10 -3 0 17 -17 25 -25 12z"/>
<path d="M1670 8930 c0 -6 4 -9 9 -6 5 4 12 1 14 -4 3 -6 4 -5 3 2 -3 15 -26
23 -26 8z"/>
<path d="M1795 8840 c-3 -5 -1 -10 4 -10 6 0 11 5 11 10 0 6 -2 10 -4 10 -3 0
-8 -4 -11 -10z"/>
<path d="M2150 8636 c0 -2 7 -7 16 -10 8 -3 12 -2 9 4 -6 10 -25 14 -25 6z"/>
<path d="M2516 8487 c3 -10 9 -15 12 -12 3 3 0 11 -7 18 -10 9 -11 8 -5 -6z"/>
<path d="M6070 8481 c0 -6 4 -13 10 -16 6 -3 7 1 4 9 -7 18 -14 21 -14 7z"/>
<path d="M5215 8220 c-3 -5 -1 -10 4 -10 6 0 11 5 11 10 0 6 -2 10 -4 10 -3 0
-8 -4 -11 -10z"/>
<path d="M3560 8211 c0 -6 4 -13 10 -16 6 -3 7 1 4 9 -7 18 -14 21 -14 7z"/>
<path d="M5076 8178 c3 -5 10 -6 15 -3 13 9 11 12 -6 12 -8 0 -12 -4 -9 -9z"/>
<path d="M4725 8171 c-3 -5 -2 -12 3 -15 5 -3 9 1 9 9 0 17 -3 19 -12 6z"/>
<path d="M3850 8166 c0 -2 7 -7 16 -10 8 -3 12 -2 9 4 -6 10 -25 14 -25 6z"/>
<path d="M4253 8145 c0 -8 4 -12 9 -9 5 3 6 10 3 15 -9 13 -12 11 -12 -6z"/>
<path d="M4436 8148 c3 -5 10 -6 15 -3 13 9 11 12 -6 12 -8 0 -12 -4 -9 -9z"/>
</g>
</svg>
